<?xml version="1.0" encoding="UTF-8"?><svg id="Layer_2" xmlns="http://www.w3.org/2000/svg" width="1068.7615" height="200" viewBox="0 0 1068.7615 200"><g id="Layer_1-2"><g><g><path d="M1.2373,1.0646H167.4606V63.8586c0,28.7655-10.7091,89.7824-82.485,135.1901,0,0-77.783-32.4809-83.7383-135.1901V1.0646Z" fill="#a51c30"/><path d="M84.8064,200l-.4683-.1944C83.555,199.478,5.9275,165.916,.0037,63.814l-.0037-63.814H168.1782V63.7566c0,25.1095-8.086,88.6236-82.9423,135.9731l-.4295,.2703ZM1.9511,1.9511V63.7566c5.6165,96.7558,76.2817,131.1341,82.6794,134.046,73.6401-46.7998,81.5928-109.3068,81.5928-134.046V1.9511H1.9511Z" fill="#1f1f1f"/><path d="M127.0489,81.7494s-1.4791,4.7242-8.073-.1296l-22.6252-.5442s-2.9637,.9534-3.3673-2.1492c0,0,.5442-6.1941,.2647-6.7346,0,0,.1388-1.7494-2.8305-1.7494,0,0-4.5817,.5368-4.7094-3.5061,0,0-.8034-4.3096,5.5202-4.1744,0,0,2.0196,.9441,2.1585-1.6198,0,0-.2703-17.5122-.1388-18.8487,0,0,.5443-1.6142-2.5565-1.8845,0,0-4.4465,.9367-4.9834-2.0159,0,0-.2721-4.4465,2.6953-4.7205,0,0,3.6376,.274,4.3077-.6738,0,0,.8164,.5331,.6757-2.6879l.1407-5.5295s.3887-1.4791,2.6842-1.3384c0,0,4.1763,.2684,4.7187-.1407,0,0,.9367-1.2088,1.2125-1.7531,0,0,2.1548-.1277,2.5546,.4073,0,0,3.2377,2.1548,15.4889,1.3458,0,0,1.8901,0,2.2899,.5442,0,0,2.2881,1.7457,3.6376-.1351,0,0,2.0141-.4091,8.0767-.2684,0,0,6.5995,1.7475,11.1774-2.0215l1.4847,.2647s1.8845,3.0952,3.2322,2.1603c0,0,4.0393-.4036,4.7131,.4017,0,0,1.3403,2.0122,.6701,7.2752,0,0-.8034,2.2844,3.1044,2.2844,0,0,4.4465-.809,3.8986,3.3636,0,0,1.2125,4.7187-6.1885,4.0485,0,0-.946,1.344-.8145,2.288,0,0-.1314,15.35-.2684,17.1049,0,0-.1277,2.425,3.0989,2.2936,0,0,4.3133-.2795,4.4521,3.6283,0,0,.535,5.1241-5.6646,4.1744,0,0-1.8864,.2703-2.1585,1.4828l-.2629,6.7346s.1333,3.3673-3.6357,2.5583c-.5387,0-21.0072,.4054-22.7603-.1314,0,0-.9515-.137-1.2199,.3961" fill="#fff"/><path d="M83.5491,104.2625s.9404-.398,1.2088-1.0644c0,0,2.8305-.2758,3.2303-.6757l8.8949,.6757s8.7487,.6664,12.5214-2.0382c0,0,1.3588,0,2.3029,.4128,0,0,1.8752,.4054,2.4102,1.2088l5.1241-.137s2.9619,.9497,2.6879,2.8416v2.4139s-.5442,4.8501,.8053,5.1204h3.9171s3.2285,1.4846,2.8249,3.3673c0,0,.1351,2.6879-2.6842,3.2303,0,0-2.8397,.8034-3.7727,.6794,0,0-.9497,1.2088-1.0904,2.6879l-.3961,17.6473s-.2777,1.8808,2.5546,1.6142c0,0,4.1689-.3999,5.3888,1.8919,0,0,1.0811,3.9023-1.0755,4.5761l-1.6087,.8016-3.5136,.5498s-1.4754,.1333-1.6105,2.6879v4.7094s.1351,3.2377-2.4269,3.2377l-3.769,.2703s-.9441,.8034-2.8286,.2647c0,0-22.8936,.411-23.7063,.1333l-2.7009,.5461s-2.9563,2.6953-5.3832,.6646l-1.8845-1.4846s-1.344,.274-1.8827,.1407c-.5405-.1407-25.3242,.274-25.3242,.274,0,0-5.2537,.5405-5.6535-1.2144,0,0-.6701-6.8716-.4017-7.6861,0,0,0-2.0104-1.2144-2.1455,0,0-5.2518-.2647-5.3869-.8127,0,0-2.8342-2.0159-2.0233-4.03,0,0,.9478-2.7046,3.7764-2.9693,0,0,4.3059,.6812,4.3059-.5387,0,0,.274-.809,.274-2.1455,0,0,.2684-16.0387,.1333-17.116,0,0,.3999-2.0215-1.3495-2.0215,0,0-1.8882,.535-3.097-.2684,0,0-3.2285,.1351-3.9041-2.425,0,0-.5442-1.6142,.2647-2.9693,0,0,1.4809-2.9619,5.7924-2.0141,0,0,2.4288,.6794,2.6935-1.0681l-.1277-6.4699s-.5461-1.7512,2.8231-2.6935c0,0,4.3133,1.2107,5.6535-.9441,0,0,1.4846-2.9674,2.6842-.9497,0,0,2.5694,2.4306,9.5762,2.1696,0,0,12.1234-.9497,12.3881-.4165,0,0,2.96,.4165,3.769,1.3514l.8108,.1296Z" fill="#fff"/><path d="M46.9262,81.7494s-1.4846,4.7242-8.0823-.1351l-22.6252-.5387s-2.9637,.9534-3.3692-2.1511c0,0,.5405-6.1922,.2647-6.7328,0,0,.1407-1.7531-2.8231-1.7531,0,0-4.578,.5461-4.7094-3.4969,0,0-.8108-4.3188,5.5184-4.18,0,0,2.0141,.9441,2.1548-1.6105,0,0-.2721-17.5159-.1407-18.8654,0,0,.5498-1.5994-2.5546-1.8715,0,0-4.4484,.9311-4.9778-2.0326,0,0-.274-4.4354,2.6879-4.7094,0,0,3.6339,.274,4.3133-.6627,0,0,.8071,.5239,.672-2.7101l.1351-5.5128s.4036-1.4846,2.6879-1.3495c0,0,4.1781,.2629,4.7224-.1351,0,0,.946-1.2088,1.2014-1.7531,0,0,2.164-.1222,2.5676,.4036,0,0,3.2285,2.1548,15.4981,1.3495,0,0,1.8752,0,2.2844,.5405,0,0,2.2844,1.7475,3.6283-.1425,0,0,2.0215-.398,8.0841-.2629,0,0,6.5902,1.7438,11.1756-2.0104l1.4791,.2666s1.8827,3.0933,3.2396,2.1492c0,0,4.0374-.4054,4.7187,.4054,0,0,1.3421,2.0215,.6627,7.2752,0,0-.8034,2.2899,3.0989,2.2899,0,0,4.4447-.8034,3.9078,3.3581,0,0,1.2162,4.7187-6.1922,4.0485,0,0-.9478,1.3495-.8145,2.288,0,0-.1333,15.35-.2684,17.1049,0,0-.1296,2.4195,3.0989,2.2936,0,0,4.3114-.2832,4.4465,3.6339,0,0,.5313,5.1185-5.6535,4.1689,0,0-1.8919,.2758-2.1622,1.4828l-.2647,6.7328s.1407,3.3692-3.6413,2.5657c-.5387,0-21.0054,.398-22.7584-.1314,0,0-.9367-.1425-1.2107,.3906" fill="#fff"/><path d="M127.0489,81.7494s-1.4791,4.7242-8.073-.1296l-22.6252-.5442s-2.9637,.9534-3.3673-2.1492c0,0,.5442-6.1941,.2647-6.7346,0,0,.1388-1.7494-2.8305-1.7494,0,0-4.5817,.5368-4.7094-3.5061,0,0-.8034-4.3096,5.5202-4.1744,0,0,2.0196,.9441,2.1585-1.6198,0,0-.2703-17.5122-.1388-18.8487,0,0,.5443-1.6142-2.5565-1.8845,0,0-4.4465,.9367-4.9834-2.0159,0,0-.2721-4.4465,2.6953-4.7205,0,0,3.6376,.274,4.3077-.6738,0,0,.8164,.5331,.6757-2.6879l.1407-5.5295s.3887-1.4791,2.6842-1.3384c0,0,4.1763,.2684,4.7187-.1407,0,0,.9367-1.2088,1.2125-1.7531,0,0,2.1548-.1277,2.5546,.4073,0,0,3.2377,2.1548,15.4889,1.3458,0,0,1.8901,0,2.2899,.5442,0,0,2.2881,1.7457,3.6376-.1351,0,0,2.0141-.4091,8.0767-.2684,0,0,6.5995,1.7475,11.1774-2.0215l1.4847,.2647s1.8845,3.0952,3.2322,2.1603c0,0,4.0393-.4036,4.7131,.4017,0,0,1.3403,2.0122,.6701,7.2752,0,0-.8034,2.2844,3.1044,2.2844,0,0,4.4465-.809,3.8986,3.3636,0,0,1.2125,4.7187-6.1885,4.0485,0,0-.946,1.344-.8145,2.288,0,0-.1314,15.35-.2684,17.1049,0,0-.1277,2.425,3.0989,2.2936,0,0,4.3133-.2795,4.4521,3.6283,0,0,.535,5.1241-5.6646,4.1744,0,0-1.8864,.2703-2.1585,1.4828l-.2629,6.7346s.1333,3.3673-3.6357,2.5583c-.5387,0-21.0072,.4054-22.7603-.1314,0,0-.9515-.137-1.2199,.3961" fill="#1f1f1f"/><path d="M127.0489,81.7494s-1.4789,4.7246-8.0738-.1295l-22.6245-.5438s-2.9637,.9524-3.3665-2.1494c0,0,.5438-6.1949,.2647-6.7358,0,0,.1381-1.7494-2.8313-1.7494,0,0-4.5807,.5381-4.7102-3.5046,0,0-.8028-4.3102,5.5216-4.175,0,0,2.0199,.9438,2.158-1.6199,0,0-.2705-17.5114-.1381-18.8494,0,0,.5438-1.6142-2.5579-1.8847,0,0-4.4455,.938-4.9835-2.0141,0,0-.2705-4.4484,2.6961-4.7217,0,0,3.6369,.2733,4.3074-.6733,0,0,.8172,.5323,.6762-2.6874l.141-5.5302s.3884-1.479,2.6845-1.338c0,0,4.175,.2676,4.7188-.141,0,0,.9351-1.2085,1.2114-1.7523,0,0,2.1551-.1295,2.5551,.4057,0,0,3.237,2.1551,15.4887,1.3466,0,0,1.8904,0,2.2904,.5438,0,0,2.2875,1.7465,3.6369-.1352,0,0,2.0141-.4086,8.0767-.2676,0,0,6.6006,1.7465,11.1784-2.0228l1.4847,.2647s1.8846,3.096,3.2312,2.1609c0,0,4.0398-.4028,4.7131,.4028,0,0,1.3408,2.0113,.6704,7.2739,0,0-.8028,2.2846,3.1046,2.2846,0,0,4.4455-.8085,3.8988,3.3636,0,0,1.2114,4.7188-6.1891,4.0484,0,0-.9466,1.3437-.8143,2.2875,0,0-.1324,15.3506-.2676,17.1057,0,0-.1295,2.4256,3.0989,2.2932,0,0,4.3131-.2791,4.4512,3.6283,0,0,.5352,5.1245-5.6655,4.175,0,0-1.8847,.2705-2.158,1.4818l-.2618,6.7358s.1324,3.3665-3.6369,2.5579c-.5381,0-21.0074,.4057-22.7597-.1324,0,0-.9524-.1352-1.22,.3971Z" fill="none" stroke="#1f1f1f" stroke-width=".3109"/><path d="M101.5983,26.2613s.2684,2.699,.2684,3.3784c0,.672-.398,38.9193-.398,38.9193,0,0,.398,2.96-2.1492,4.441,0,0-.6812,.2647-.8145-1.6161l.2647-40.3984s.2703-4.9889,2.8286-4.7242" fill="#fff"/><path d="M101.5984,26.2612s.2676,2.6989,.2676,3.378c0,.6733-.3971,38.9188-.3971,38.9188,0,0,.3971,2.9608-2.1494,4.4426,0,0-.6819,.2647-.8143-1.6171l.2647-40.3977s.2705-4.9893,2.8284-4.7246Z" fill="none" stroke="#1f1f1f" stroke-width=".3264"/><path d="M97.1586,73.4053s.2647-37.9807,.1351-38.6564c-.1351-.6646,.1296,.5424,.1296,.5424,0,0-.3999-6.5995,1.3458-9.3022,0,0-.5405-2.2788-3.6357,.5479l-.1296,5.5184s0,3.1044-2.8286,2.9693c0,0-3.234-.1444-4.7187,1.3384,0,0-.809,2.9656,2.2936,2.4343,0,0,4.8445,0,5.1185,2.0104l-.274,20.3427s1.0829,3.3747-2.6879,3.3747c0,0-4.5891-.2851-4.4502,2.5472,0,0,.9515,2.4232,4.8538,1.6161,0,0,2.8231,.5331,2.6935,3.2377v5.113s-.2758,2.0289,2.4195,2.1603h21.0109s1.0718,.1351,1.0718-1.2162c0,0-.1296-1.0755-1.7438-1.0755l-17.5085-.2684s-2.8305,.946-3.0952-3.234" fill="#fff"/><path d="M101.1992,73.3424s-.5387,1.8845,1.4791,1.4884h13.8691l3.769,.8127s3.9023-.9478,0-3.0989c0,0-12.3863,.124-13.4655-.1351,0,0-2.5583-.6757-3.1044-.8108,0,0-1.3384-.535-2.5472,1.7438" fill="#fff"/><path d="M101.1993,73.3424s-.5381,1.8847,1.4789,1.4876h13.8687l3.7693,.8143s3.9017-.9495,0-3.0989c0,0-12.3869,.1237-13.4659-.1352,0,0-2.5579-.6762-3.1046-.8114,0,0-1.338-.5352-2.5464,1.7437Z" fill="none" stroke="#1f1f1f" stroke-width=".3264"/><path d="M124.2194,75.2262s-2.5583,0-2.4232,3.3747c0,0,.2684,2.5583,2.9638,2.5583,0,0,2.4232-.4054,2.1622-3.0952,0,0-1.4884-3.371-2.7027-2.8379" fill="#fff"/><path d="M126.1132,73.8902s1.2088-1.344,2.0196-1.344c0,0,13.4711,1.2088,15.748-.4017,0,0,2.0289-.4091,2.5694,0,0,0,2.0178,1.6105,2.0178,2.5491,0,0-.137,1.2218-2.5583,.5313,0,0-15.2241,.1462-16.0294,.1462,0,0-4.1818,.9386-3.7672-1.481" fill="#fff"/><path d="M126.1132,73.8903s1.2085-1.3437,2.0199-1.3437c0,0,13.4717,1.2085,15.7476-.4028,0,0,2.0285-.4086,2.5695,0,0,0,2.017,1.6113,2.017,2.5493,0,0-.1352,1.2229-2.5579,.5323,0,0-15.2239,.1467-16.0296,.1467,0,0-4.1808,.938-3.7664-1.4818Z" fill="none" stroke="#1f1f1f" stroke-width=".3264"/><path d="M127.8612,78.254s0-1.0811,1.8882-1.0811l18.8487-.1333s1.7586,.9441,1.7586-2.2881c0,0,.6849-14.6762,.7534-30.8463,.0167-4.8112,.2388-9.8612,.0611-14.5373,0,0-.4147-2.0196-.9552-2.4343,0,0,0-2.1492,2.2899-1.3403,0,0,2.0252,.137,1.4847,3.2433l.137,4.6946s-.4073,2.0289,3.2266,1.4884c0,0,3.6357,.5405,3.7709,1.8808,0,0,1.0792,2.7046-3.2248,2.4287h-3.1044s-1.3458,.8053-.9441,2.4251l-.4017,19.5355s-.2721,3.3636,2.9637,3.2359c0,0,3.3636-.1407,4.0356,.9385,0,0,2.3047,3.3673-2.6879,3.0933,0,0-3.0989-.1351-3.7709,.4091,0,0-.5405,.6664-.9441,7.003,0,0,.274,3.7727-2.5546,3.3636,0,0-18.7321,.2666-20.4722-.1333,0,0-1.8901,.5424-2.1585-.946" fill="#fff"/><path d="M103.6228,25.0359l-.4091,43.2455s-.1296,2.0122,3.2377,2.4176c0,0,3.9041,.3999,4.839,0,0,0,2.575-.1388,9.1615,.1388,0,0,1.629,1.6253,1.7586-.4128,0,0,1.07-35.004,.5387-42.2866,0,0-.1388-3.1026-2.4325-3.234,0,0-10.2278,.8182-11.1719,0l-4.043-1.0681s-1.6179,.1296-1.4791,1.1996" fill="#fff"/><path d="M124.8995,27.2009s-.4054,20.3334-.2684,21.0128l-.2703,17.1012-.5424,5.9256s.8127,1.2181,1.481,.4091c0,0,4.317-1.0922,7.0067-.6701,0,0,8.6265,.7997,10.3703-.5516,0,0,1.3514,.672,1.7457-1.4791,0,0,.5331-37.7049,.2814-38.3787,0,0,.522-5.3999,.2518-5.9293,0,0-.1166-1.207-2.4121-.1351,0,0,.2629,1.0774-12.5251,.6646,0,0-4.8446-.1333-5.1185,2.0307" fill="#fff"/><path d="M146.3179,26.67l-.1296,42.5532s1.0737,3.7783,2.8194,3.3803c0,0,.2629-.8145,.3943-2.1603l.5498-40.5446s-1.3551-6.4569-3.6339-3.2285" fill="#fff"/><path d="M146.3178,26.6701l-.1295,42.5529s1.0733,3.7779,2.8198,3.3809c0,0,.2618-.8143,.3942-2.1609l.5496-40.5445s-1.3552-6.4567-3.6341-3.2284Z" fill="none" stroke="#1f1f1f" stroke-width=".3264"/><path d="M129.783,39.4085c-.4091-1.0792,2.2899-1.2107,2.2899-1.2107l1.3477,.2703c.9423-.1388,1.8864,.2703,1.8864,.2703,.9423,1.4791-.6757,2.2881-.6757,2.2881l-.535,1.7494c-.1388,1.4865,0,14.2856,0,14.2856,.2666,.6646,1.3495,1.8734,1.3495,1.8734,0,1.2144-1.4884,.9515-1.4884,.9515l-3.9097,.1351c-1.2107-.1351-.8034-1.4865-.8034-1.4865,1.344-.6738,1.7494-3.1063,1.7494-3.1063v-13.3267l-1.2107-2.6935Z" fill="#1f1f1f"/><path d="M111.6034,51.9374l-.2721,4.1744,1.2088,2.0141c.8145,1.0829-.5424,1.8938-.5424,1.8938l-4.304-.4054c-.8016-.4054,0-1.7531,0-1.7531,1.0829-.6701,1.2125-2.425,1.2125-2.425l-.1296-7.812,.1296-5.6591c0-.6738-1.0737-1.8827-1.0737-1.8827-.9404-.1296-.6757-1.344-.6757-1.344,.2703-.6757,2.5509-.2703,2.5509-.2703h5.6628c5.3869,1.7475,4.5817,5.6535,4.5817,5.6535,.4073,3.906-3.7672,5.5313-3.7672,5.5313l-.2758,2.1492,3.9097,6.1885c.6757,.5442,.5405,1.0848,.5405,1.0848-.5405,1.4828-2.7009,0-2.7009,0l-4.8427-7.5436c-.4054-.5387-1.2125,.4054-1.2125,.4054m.1333-10.6462c.1296,2.973,.1296,7.0123,.1296,7.0123,2.5657,2.0159,4.043-.8182,4.043-.8182,3.3636-3.2211,0-6.1941-.5387-6.9938-.5498-.8182-3.234-.1444-3.234-.1444l-.3999,.9441Z" fill="#1f1f1f"/><path d="M83.5491,104.2625s.9404-.398,1.2088-1.0644c0,0,2.8305-.2758,3.2303-.6757l8.8949,.6757s8.7487,.6664,12.5214-2.0382c0,0,1.3588,0,2.3029,.4128,0,0,1.8752,.4054,2.4102,1.2088l5.1241-.137s2.9619,.9497,2.6879,2.8416v2.4139s-.5442,4.8501,.8053,5.1204h3.9171s3.2285,1.4846,2.8249,3.3673c0,0,.1351,2.6879-2.6842,3.2303,0,0-2.8397,.8034-3.7727,.6794,0,0-.9497,1.2088-1.0904,2.6879l-.3961,17.6473s-.2777,1.8808,2.5546,1.6142c0,0,4.1689-.3999,5.3888,1.8919,0,0,1.0811,3.9023-1.0755,4.5761l-1.6087,.8016-3.5136,.5498s-1.4754,.1333-1.6105,2.6879v4.7094s.1351,3.2377-2.4269,3.2377l-3.769,.2703s-.9441,.8034-2.8286,.2647c0,0-22.8936,.411-23.7063,.1333l-2.7009,.5461s-2.9563,2.6953-5.3832,.6646l-1.8845-1.4846s-1.344,.274-1.8827,.1407c-.5405-.1407-25.3242,.274-25.3242,.274,0,0-5.2537,.5405-5.6535-1.2144,0,0-.6701-6.8716-.4017-7.6861,0,0,0-2.0104-1.2144-2.1455,0,0-5.2518-.2647-5.3869-.8127,0,0-2.8342-2.0159-2.0233-4.03,0,0,.9478-2.7046,3.7764-2.9693,0,0,4.3059,.6812,4.3059-.5387,0,0,.274-.809,.274-2.1455,0,0,.2684-16.0387,.1333-17.116,0,0,.3999-2.0215-1.3495-2.0215,0,0-1.8882,.535-3.097-.2684,0,0-3.2285,.1351-3.9041-2.425,0,0-.5442-1.6142,.2647-2.9693,0,0,1.4809-2.9619,5.7924-2.0141,0,0,2.4288,.6794,2.6935-1.0681l-.1277-6.4699s-.5461-1.7512,2.8231-2.6935c0,0,4.3133,1.2107,5.6535-.9441,0,0,1.4846-2.9674,2.6842-.9497,0,0,2.5694,2.4306,9.5762,2.1696,0,0,12.1234-.9497,12.3881-.4165,0,0,2.96,.4165,3.769,1.3514l.8108,.1296Z" fill="#1f1f1f"/><path d="M83.5463,104.1008s.938-.3971,1.2114-1.0646c0,0,2.8284-.2791,3.2284-.679l8.891,.679s8.7528,.6675,12.525-2.0371c0,0,1.3581,0,2.3019,.4115,0,0,1.8789,.4057,2.4112,1.2056l5.1217-.1352s2.9665,.9495,2.6932,2.8399v2.417s-.5438,4.8512,.8057,5.1216h3.9103s3.2312,1.4847,2.8284,3.3665c0,0,.1381,2.6874-2.6845,3.2284,0,0-2.8399,.8057-3.7722,.6819,0,0-.9524,1.2085-1.0876,2.6874l-.3999,17.6467s-.2733,1.8789,2.5551,1.6113c0,0,4.1693-.3942,5.3893,1.8933,0,0,1.0819,3.9017-1.0733,4.575l-1.6113,.8085-3.5132,.5438s-1.4761,.1324-1.6113,2.6874v4.7159s.1352,3.2312-2.4285,3.2312l-3.7664,.2705s-.9438,.8028-2.8284,.2647c0,0-22.8978,.4115-23.7035,.1352l-2.7047,.5438s-2.9521,2.6961-5.3806,.6647l-1.8875-1.4847s-1.3437,.2762-1.8818,.141c-.5409-.141-25.3205,.2762-25.3205,.2762,0,0-5.254,.5381-5.6568-1.2171,0,0-.6704-6.8682-.4-7.6825,0,0,0-2.0113-1.2171-2.1494,0,0-5.2483-.2647-5.3864-.8057,0,0-2.8313-2.0228-2.0228-4.0369,0,0,.9495-2.6989,3.7779-2.9694,0,0,4.3045,.6848,4.3045-.5381,0,0,.2733-.8085,.2733-2.1465,0,0,.2705-16.0382,.1352-17.1115,0,0,.3999-2.0256-1.3523-2.0256,0,0-1.8847,.5352-3.096-.2647,0,0-3.2284,.1352-3.9017-2.4256,0,0-.5467-1.6142,.2647-2.9694,0,0,1.4789-2.9608,5.7892-2.017,0,0,2.4313,.679,2.6961-1.0675l-.1295-6.4682s-.5438-1.7494,2.8255-2.6961c0,0,4.3131,1.2114,5.654-.9409,0,0,1.4789-2.9665,2.6845-.9524,0,0,2.5695,2.4313,9.5729,2.1724,0,0,12.1222-.9524,12.3869-.4201,0,0,2.9636,.4201,3.7722,1.3523l.8085,.1324Z" fill="none" stroke="#1f1f1f" stroke-width=".3109"/><path d="M87.0502,157.1993s1.6179-.8201,2.699-.5331c1.0755,.2573,16.8347-.1407,16.8347-.1407,0,0,6.866,.5331,7.9453-.4147l1.605-.5368s.6794-.7997,.6794-1.8734c0-1.0903,.137-4.7224,.137-4.7224l.4073-1.3366s-.1333-1.3532,0-37.3236c0,0,.5313-2.8138-1.2236-4.5706,0,0,0-1.0737,.5442-.9423,.5461,.1425,.2721,.1425,.2721,.1425,0,0,2.4213-.6849,2.8212,.2573,0,0,1.0866,3.2229,.1351,5.113,0,0-.2684,3.9134,1.766,3.9134,0,0,.8034,.8127,2.4176,.4054,0,0,3.4987,.4073,3.4987,1.4772,0,0,0,2.4288-2.425,2.0233l-3.2359,.2666s-2.1566,.4165-1.8845,2.96c.274,2.5639-.137,20.8813-.137,20.8813,0,0,0,2.164,3.371,2.0326,0,0,4.1763-.1444,4.1763,1.0644,0,0,1.0755,2.699-1.8845,2.836,0,0-5.6628-.137-5.2518,1.4735,0,0-.411,3.7727-.6794,4.4428,0,0,.5479,3.1044-.1314,3.6431,0,0-.3943,1.7512-4.0337,1.4791,0,0-23.1639-.1277-26.8051,.1314,0,0-2.1585-.2592-1.6179-2.1492" fill="#fff"/><path d="M82.879,154.6408s2.2881,.3962,2.2881,2.5583c0,2.1492,.1351,3.3655-1.2181,3.6339-1.3403,.2666-2.8194-.1333-3.2192-1.8771-.411-1.7568,.2592-3.919,2.1492-4.3151" fill="#fff"/><path d="M85.5693,153.5632s2.4195-1.6253,3.3636-1.3495c0,0,12.2567,.809,16.035,.1444,3.769-.6794,1.4791-.1444,1.4791-.1444,0,0,3.234,0,4.1726-1.2144,0,0,.946-.2592,1.4847,.6794l2.0085,2.1603s.1462,1.3421-2.1474,1.2033c0,0-21.9569,0-22.6233,.1388,0,0-4.1763,.6664-3.7727-1.6179" fill="#fff"/><path d="M85.5693,153.5633s2.4198-1.6257,3.3636-1.3495c0,0,12.2574,.8085,16.0354,.1439,3.7693-.679,1.4789-.1439,1.4789-.1439,0,0,3.2341,0,4.1721-1.2142,0,0,.9466-.259,1.4847,.679l2.0084,2.1609s.1467,1.3408-2.1465,1.2027c0,0-21.9569,0-22.6245,.1381,0,0-4.175,.6675-3.7722-1.6171Z" fill="none" stroke="#1f1f1f" stroke-width=".3264"/><path d="M53.6516,105.7475s.9404,0,.809,1.6179l-.274,40.6761s.4054,2.699-1.8808,4.4484c0,0-1.2199,1.4735-1.2199-.8108l.5461-41.4832s.1314-3.0989,2.0196-4.4484" fill="#fff"/><path d="M53.6516,105.7475s.9409,0,.8085,1.6171l-.2733,40.6768s.4057,2.6989-1.8818,4.4484c0,0-1.22,1.4732-1.22-.8114l.5467-41.4825s.1324-3.0989,2.0199-4.4484Z" fill="none" stroke="#1f1f1f" stroke-width=".3264"/><path d="M51.4979,106.0213s-1.6179,2.9637-1.4809,3.6431l-.137,9.0134s-.1351,5.7923,0,6.4662c.137,.6738-.1351,17.6492-.1351,17.6492,0,0-.1351,3.2229,0,4.3114v7.2677s-.2703,3.234,2.1529,2.4195c0,0,23.7007-.5387,25.1909-.124,0,0,2.1492,.3943,1.3495,1.4735,0,0,0,.946-1.4939,.6738,0,0-11.1756,1.07-21.272,.6757,0,0-6.7383,.3943-7.1437-.4036,0,0-1.0755-.1314-1.0755-4.0448,0,0,0-3.6283-.2592-4.3022,0,0,.2592-1.9067-3.1044-2.2992,0,0-4.7113,.8145-4.8482-2.0141,0,0,.672-2.0196,5.25-1.7549,0,0,3.3692,.5387,2.7027-2.1603l.3962-19.9224s.411-3.5135-1.8845-3.6487c0,0-2.1492-.1185-2.8305,.1351,0,0-3.906,0-3.6339-2.2788,0,0,1.3458-2.4288,5.25-1.8901,0,0,2.9619,.5368,3.0989-2.8231,0,0-.137-6.8734,1.4791-7.1382,0,0,3.3729,.124,2.4288,1.0755" fill="#fff"/><path d="M55.5318,150.5989s1.8882,2.0104,4.9889,1.8901l18.3064,.2647s2.0289,.1388,1.9012,1.2088c0,0-.2851,1.6105-2.6953,1.0792l-22.092-.2684-2.4288,.1444s-1.6179-.2758,.9497-3.3747l1.07-.9441Z" fill="#fff"/><path d="M55.5317,150.5991s1.8875,2.0113,4.9893,1.8904l18.3056,.2647s2.0285,.1381,1.9019,1.2085c0,0-.2849,1.6113-2.6961,1.079l-22.0922-.2676-2.4285,.1439s-1.6171-.2762,.9495-3.3751l1.0704-.9438Z" fill="none" stroke="#1f1f1f" stroke-width=".3264"/><path d="M112.1032,148.8374s1.6179,3.1026,2.425,3.5247c0,0,1.4828,1.7383,1.0792-1.3588l.2703-38.8008s-.4054-1.3403,0-3.4895l-1.6161-2.9674s-1.7549-1.3421-1.7549,.8127l-.2684,41.3499-.1351,.9293Z" fill="#fff"/><path d="M112.1032,148.8373s1.6171,3.1018,2.4256,3.5247c0,0,1.4818,1.7379,1.079-1.3581l.2705-38.8008s-.4057-1.3408,0-3.4902l-1.6171-2.9665s-1.7552-1.3437-1.7552,.8114l-.2676,41.3501-.1352,.9294Z" fill="none" stroke="#1f1f1f" stroke-width=".3264"/><path d="M82.2061,130.3887s.1351,3.2248-.2758,6.3218c-.2221,1.6975,.5442,9.5725-.1388,13.6117,0,0-.124,1.3421-2.96,.1407,0,0-17.2382,.3943-17.7714-.1407,0,0-4.7187,.1407-5.1204-2.2899,0,0,.6701-18.447,.2703-19.1431,0,0-.2703-10.0908,0-11.0294,0,0,.3999-9.2929,.1314-10.3722,0,0,.1351-2.1548-.2647-3.2359,0,0,0-1.3495,2.2881-.5424,0,0,.796,1.4847,5.2481,.8238,0,0,3.2396,.5313,6.3366,.1259,0,0,6.8642-.5368,8.6228,0,0,0,2.6953-.5368,3.4932,2.4325l-.1351,8.347,.809,2.6898,.946-.6646,.3961-2.0252,.1351-8.8912s.5387-1.6198,2.6972-1.8882c0,0,3.3655-.4073,3.9152-.1259,.5331,.2592,7.8009,.6609,9.8353,.2592,2.0104-.4054,2.4102,1.3458,8.4766-1.742,0,0,1.6179,.1296,1.6179,1.2014,0,0-.5535,11.457,0,13.6081,0,0,0,21.0091-.4147,22.4882l.2758,6.7383s.2647,2.9637-4.4391,3.2359c0,0,2.96,.3999-15.6333-.137,0,0-2.96-.1351-6.1922,1.3366,0,0-.6701-.1314-.6701-1.8771,0,0,.5313-6.3255,0-12.5344l-.2647-6.8623-1.2144,.1407Z" fill="#fff"/><path d="M70.0797,120.8336s.4091,9.9668,0,11.3144l-.124,2.1548s.5331,1.4754,1.3403,2.0196c0,0,.6775,1.8808-.946,1.7549,0,0-3.3599-.2795-4.1689-.1499,0,0-1.8938,0,0-2.4084,0,0,.6683-.9515,.5313-3.371,0,0,0-11.3144,.2777-11.9827,0,0,.2647-1.4865-.6831-1.8956l-1.6161,.1388-2.0122,1.8864s-.411,2.027-1.3551-.1296v-1.0848l1.2144-3.2285,.8145-.1425s1.2051,.8145,2.2844,1.0866h6.3366l2.2844-1.0866s.9404,.1425,.6794,1.3514c0,0,.3962,3.1044-1.3532,3.5024,0,0-1.0792-.398-1.6105-1.8845,0,0-1.7586-.9385-1.8938,2.1548" fill="#1f1f1f"/><path d="M99.8395,117.2032s-5.1074-.411-5.237,5.113c0,0-.5554,3.7783,5.113,6.207,0,0,4.1744,2.0104,3.8986,4.5687,0,0-.5368,4.5798-4.9834,2.2899,0,0-2.1492-1.0792-2.0104-2.2899,0,0-.6794-1.4846-1.4846-1.2107,0,0-.9534,.2666-.5331,4.7131,0,0,0,1.7512,2.0178,0l1.07,.2703s3.6376,2.9637,6.7291-.6775c0,0,3.3766-3.0952,.9441-6.8642,0,0-1.7494-2.6898-4.839-4.0374,0,0-2.9693-1.3588-3.6394-3.6431,0,0,.946-4.043,4.5724-1.8919,0,0,1.3514,1.6198,2.1566,1.8919,0,0,1.0792,0,.8053-2.4306l-.2555-2.0085s-.274-1.4995-2.164,0c0,0-1.7512,.6609-2.1603,0" fill="#1f1f1f"/><path d="M83.4165,114.3646c.9385,.6831,1.0737,2.0233,1.0737,2.0233,2.6953,7.1419,4.9852,17.5103,4.9852,17.5103,.672,1.3421,1.8864,2.4288,1.8864,2.4288,2.2899,.8034,0,1.4717,0,1.4717-.9441,.411-4.0356-.124-4.0356-.124-1.6216-.2832-.9552-.809-.9552-.809,.6794-.6794,.1351-3.3784,.1351-3.3784-.1351-1.0663-1.3403-2.8231-1.3403-2.8231-.535-.2721-1.4809,.9441-1.4809,.9441,0,0-1.4791,.5387-1.6198,0-.137-.5461-1.0774-1.0663-1.0774-1.0663-1.6142,0-2.2844,4.0245-2.2844,4.0245,.9404,3.3747,0,2.8249,0,2.8249-.809,1.0848-3.3692,.2832-3.3692,.2832-1.2088-.2832-.3962-1.2236-.3962-1.2236,1.4754-.2647,1.8752-1.8845,1.8752-1.8845,.6794-.9404,4.9797-18.4489,4.9797-18.4489,.4128-.8145,.6794-2.4269,1.6235-1.7531m-2.1492,8.8912c-.1407,.6738-1.0848,4.4447-1.0848,4.4447l.8053,1.3532s2.1548,.1296,2.9637,.1296c.8034,0,.9441-.6627,.9441-1.3532,0-.6646-1.4791-4.7039-1.4791-4.7039l-.6794-.8053-1.4698,.9348Z" fill="#1f1f1f"/><path d="M46.9262,81.7494s-1.4846,4.7242-8.0823-.1351l-22.6252-.5387s-2.9637,.9534-3.3692-2.1511c0,0,.5405-6.1922,.2647-6.7328,0,0,.1407-1.7531-2.8231-1.7531,0,0-4.578,.5461-4.7094-3.4969,0,0-.8108-4.3188,5.5184-4.18,0,0,2.0141,.9441,2.1548-1.6105,0,0-.2721-17.5159-.1407-18.8654,0,0,.5498-1.5994-2.5546-1.8715,0,0-4.4484,.9311-4.9778-2.0326,0,0-.274-4.4354,2.6879-4.7094,0,0,3.6339,.274,4.3133-.6627,0,0,.8071,.5239,.672-2.7101l.1351-5.5128s.4036-1.4846,2.6879-1.3495c0,0,4.1781,.2629,4.7224-.1351,0,0,.946-1.2088,1.2014-1.7531,0,0,2.164-.1222,2.5676,.4036,0,0,3.2285,2.1548,15.4981,1.3495,0,0,1.8752,0,2.2844,.5405,0,0,2.2844,1.7475,3.6283-.1425,0,0,2.0215-.398,8.0841-.2629,0,0,6.5902,1.7438,11.1756-2.0104l1.4791,.2666s1.8827,3.0933,3.2396,2.1492c0,0,4.0374-.4054,4.7187,.4054,0,0,1.3421,2.0215,.6627,7.2752,0,0-.8034,2.2899,3.0989,2.2899,0,0,4.4447-.8034,3.9078,3.3581,0,0,1.2162,4.7187-6.1922,4.0485,0,0-.9478,1.3495-.8145,2.288,0,0-.1333,15.35-.2684,17.1049,0,0-.1296,2.4195,3.0989,2.2936,0,0,4.3114-.2832,4.4465,3.6339,0,0,.5313,5.1185-5.6535,4.1689,0,0-1.8919,.2758-2.1622,1.4828l-.2647,6.7328s.1407,3.3692-3.6413,2.5657c-.5387,0-21.0054,.398-22.7584-.1314,0,0-.9367-.1425-1.2107,.3906" fill="#1f1f1f"/><path d="M46.9262,81.7494s-1.4847,4.7246-8.0824-.1352l-22.6245-.5381s-2.9637,.9524-3.3694-2.1523c0,0,.5409-6.192,.2647-6.733,0,0,.141-1.7523-2.8227-1.7523,0,0-4.5778,.5467-4.7102-3.496,0,0-.8114-4.3189,5.5187-4.1808,0,0,2.0141,.9438,2.1551-1.6113,0,0-.2733-17.5143-.141-18.8638,0,0,.5496-1.5998-2.5551-1.8731,0,0-4.4484,.9323-4.9778-2.0314,0,0-.2733-4.4369,2.6874-4.7102,0,0,3.6341,.2733,4.3131-.6618,0,0,.8085,.5237,.6733-2.7105l.1352-5.513s.4028-1.4847,2.6874-1.3495c0,0,4.1779,.2618,4.7217-.1352,0,0,.9466-1.2085,1.2027-1.7523,0,0,2.1638-.1237,2.5666,.4028,0,0,3.2284,2.1551,15.4973,1.3495,0,0,1.876,0,2.2846,.5409,0,0,2.2846,1.7465,3.6283-.1439,0,0,2.0228-.3971,8.0853-.2618,0,0,6.5891,1.7437,11.1756-2.0113l1.4789,.2676s1.8818,3.0931,3.2399,2.1494c0,0,4.0369-.4057,4.7188,.4057,0,0,1.3408,2.0199,.6618,7.2739,0,0-.8028,2.2904,3.0989,2.2904,0,0,4.4455-.8028,3.9074,3.3579,0,0,1.2171,4.7188-6.192,4.0484,0,0-.9466,1.3495-.8143,2.2875,0,0-.1324,15.3506-.2676,17.1057,0,0-.1295,2.4198,3.0989,2.2932,0,0,4.3102-.282,4.4455,3.6341,0,0,.5323,5.1188-5.654,4.1692,0,0-1.8904,.2762-2.1609,1.4818l-.2647,6.733s.141,3.3694-3.6427,2.5666c-.5381,0-21.0045,.3971-22.7568-.1324,0,0-.938-.141-1.2114,.3913Z" fill="none" stroke="#1f1f1f" stroke-width=".3109"/><path d="M21.4702,26.2681s.2758,2.6879,.2758,3.3599-.411,38.9248-.411,38.9248c0,0,.411,2.973-2.1548,4.4484,0,0-.6701,.2758-.809-1.6105l.2703-40.4039s.2684-4.9871,2.8286-4.7187" fill="#fff"/><path d="M21.4701,26.2681s.2762,2.6874,.2762,3.3607c0,.6704-.4115,38.9245-.4115,38.9245,0,0,.4115,2.9723-2.1551,4.4484,0,0-.6704,.2762-.8085-1.6113l.2705-40.4035s.2676-4.9864,2.8284-4.7188Z" fill="none" stroke="#1f1f1f" stroke-width=".3264"/><path d="M17.0276,73.4053s.2684-37.9807,.1351-38.6601c-.1351-.6664,.1333,.5442,.1333,.5442,0,0-.398-6.5884,1.3458-9.2948,0,0-.5387-2.2899-3.6376,.5387l-.1296,5.5239s0,3.1026-2.8305,2.9675c0,0-3.234-.1444-4.7224,1.3458,0,0-.8016,2.9582,2.2918,2.4269,0,0,4.8501,0,5.1185,2.0048l-.2684,20.3482s1.0829,3.3673-2.6935,3.3673c0,0-4.578-.2684-4.4484,2.5602,0,0,.9478,2.4288,4.8575,1.6179,0,0,2.8249,.535,2.6953,3.2211v5.1259s-.2777,2.0252,2.4213,2.1511h21.0128s1.0737,.1407,1.0737-1.2199c0,0-.137-1.0607-1.7475-1.0607l-17.5029-.274s-2.836,.9404-3.1044-3.234" fill="#fff"/><path d="M20.6651,73.6738s-.535,1.8938,1.4754,1.481h13.8746l3.7727,.8034s3.9153-.9385,0-3.0933c0,0-12.3918,.1351-13.4711-.1314,0,0-2.5528-.6738-3.097-.8053,0,0-1.3495-.5387-2.5546,1.7457" fill="#fff"/><path d="M20.6651,73.6739s-.5352,1.8933,1.4761,1.4818h13.8745l3.7722,.8028s3.916-.938,0-3.0931c0,0-12.3927,.1352-13.4717-.1324,0,0-2.5522-.6733-3.096-.8057,0,0-1.3495-.5381-2.5551,1.7465Z" fill="none" stroke="#1f1f1f" stroke-width=".3264"/><path d="M43.7003,75.5677s-2.5657,0-2.4306,3.3544c0,0,.2666,2.5694,2.96,2.5694,0,0,2.425-.4128,2.1585-3.0989,0,0-1.4884-3.371-2.6879-2.8249" fill="#fff"/><path d="M45.5804,74.2119s1.2088-1.3458,2.0196-1.3458c0,0,13.4655,1.2125,15.7573-.398,0,0,2.0252-.3999,2.5565,0,0,0,2.0215,1.6105,2.0215,2.5528,0,0-.1296,1.2218-2.5528,.5461,0,0-15.2278,.1333-16.0294,.1333,0,0-4.1818,.9367-3.7727-1.4884" fill="#fff"/><path d="M45.5804,74.2119s1.2085-1.3466,2.0199-1.3466c0,0,13.4659,1.2142,15.7563-.3971,0,0,2.0256-.3999,2.5579,0,0,0,2.0199,1.6113,2.0199,2.5522,0,0-.1295,1.2229-2.5522,.5467,0,0-15.2268,.1324-16.0296,.1324,0,0-4.1808,.938-3.7722-1.4876Z" fill="none" stroke="#1f1f1f" stroke-width=".3264"/><path d="M47.7341,78.254s0-1.07,1.8752-1.07l18.8673-.1407s1.7475,.9312,1.7475-2.2918c0,0,.6905-14.6817,.7553-30.85,.0204-4.8075,.2332-9.8575,.0518-14.5336,0,0-.4054-2.0141-.9423-2.4287,0,0,0-2.1548,2.2973-1.3384,0,0,2.0122,.1296,1.4717,3.2229l.137,4.7168s-.4073,2.0159,3.2285,1.4847c0,0,3.632,.5313,3.7672,1.8808,0,0,1.0848,2.699-3.2192,2.4232h-3.0933s-1.3532,.8053-.9497,2.4251l-.4036,19.53s-.2758,3.3636,2.9637,3.2414c0,0,3.3673-.1407,4.0337,.9348,0,0,2.2936,3.371-2.6935,3.097,0,0-3.0915-.1351-3.7709,.4054,0,0-.5331,.6794-.9423,6.9975,0,0,.2721,3.7783-2.5602,3.3729,0,0-18.7173,.2647-20.463-.1388,0,0-1.8901,.5442-2.1585-.9404" fill="#fff"/><path d="M23.4819,25.0458l-.3943,43.2381s-.1314,2.0085,3.2322,2.4139c0,0,3.9097,.4091,4.8445,0,0,0,2.5546-.1296,9.1615,.1407,0,0,1.6179,1.6105,1.7494-.4054,0,0,1.0792-35.017,.5405-42.2921,0,0-.1351-3.0952-2.4306-3.234,0,0-10.2315,.8071-11.1737,0l-4.0356-1.0774s-1.6235,.1314-1.4939,1.2162" fill="#fff"/><path d="M66.1868,26.67l-.1351,42.5587s1.0755,3.7727,2.8305,3.3692c0,0,.2684-.809,.4036-2.1603l.5387-40.5391s-1.3477-6.4662-3.6376-3.2285" fill="#fff"/><path d="M66.1867,26.6701l-.1352,42.5586s1.0761,3.7722,2.8313,3.3694c0,0,.2676-.8085,.4028-2.1609l.5381-40.5387s-1.3466-6.4654-3.6369-3.2284Z" fill="none" stroke="#1f1f1f" stroke-width=".3264"/><path d="M44.7768,27.0284s-.4036,20.3334-.2758,21.0128l-.2573,17.1031-.5424,5.9219s.7997,1.2199,1.4754,.411c0,0,4.317-1.0792,7.0067-.6757,0,0,8.6265,.8164,10.3703-.535,0,0,1.3458,.6646,1.7494-1.4847,0,0,.5368-37.7104,.2721-38.3843,0,0,.5387-5.3888,.2647-5.9219,0,0-.1407-1.2218-2.4195-.1425,0,0,.2647,1.0811-12.5251,.6757,0,0-4.8501-.1333-5.1185,2.0196" fill="#fff"/><path d="M40.6194,39.4844l-1.2162,2.5657s-2.9582,13.0545-4.5706,15.7517c0,0-.2666,2.7046-2.5583,.5368,0,0-5.2592-16.5644-5.5295-17.0994l-1.7494-1.2162s-1.0644-1.4828,.8108-1.6142l4.9834,.1314s1.6142,1.3477-.535,2.8397c0,0,.2647,2.1492,3.0933,10.3611,0,0,.8053,3.097,1.7494,.809l2.699-9.5632-.8145-2.8286s-.8071-1.3477,.4073-1.4828c0,0,2.8268-.2666,3.2303,.809" fill="#1f1f1f"/><path d="M48.4353,41.6425l-.1407,14.2782-.398,1.07s-1.3458,1.7512-.4054,1.8901c0,0-1.2051,.809,8.6154,.9404,0,0,3.7783,.6701,2.8342-4.1781,0,0-.4054-1.7457-1.7586,.809,0,0-.4091,2.1529-5.2444,1.4791,0,0-1.0792-.9404-1.0792-2.0104v-5.9312s-.1407-1.4809,2.1511-1.3347c0,0,2.5583,1.605,2.9674,.92,0,0,.9385-2.1437,0-3.4895,0,0-1.2199-.1277-1.3495,.4017,0,0-.8108,1.6179-3.097,.6738,0,0-1.0774-2.1511-.4054-3.9004,0,0-.2666-3.3729,2.0233-3.1026,0,0,2.6935,.5387,2.9582,1.3514,0,0,.6664,1.6216,1.3514-.2666l-.6849-2.2955s-.3906-.9423-1.07-.6738c0,0-4.578,.6738-5.1185,.1314l-3.6431,.4072s-.5313,1.3458,1.0848,2.0159c0,0,.4091,.2758,.4091,.8145" fill="#1f1f1f"/></g><g><path d="M436.9901,36.0806c-1.3942-3.0656-3.5387-5.308-7.1462-6.1062v-1.7923c2.255,0,9.7179,.273,11.433,.273,1.5818,0,8.8134-.273,11.1204-.273v1.7464c-2.0424,.398-4.391,1.538-4.391,3.647,0,1.4859,.9252,3.5387,2.6405,7.3983l16.3908,37.252,15.5073-37.3145c1.2087-3.024,2.1111-5.3351,2.1111-7.1212,0-1.9798-1.834-3.3324-4.4077-3.8617v-1.7464c2.0632,0,7.0419,.273,8.6299,.273,1.4401,0,7.367-.273,9.6094-.273v1.6922c-3.8576,1.0399-6.2188,3.2636-8.3757,8.3007l-22.8055,53.7929h-5.1517l-25.1646-55.8874h0Z" fill="#fff"/><path d="M216.3103,89.9173c2.9759-.6794,5.0663-2.0277,5.0663-5.4018V35.2033c0-3.2449-1.9424-4.5828-5.0663-5.3935v-1.7547c1.5609,0,8.2924,.2667,9.9345,.2667,1.8881,0,8.9468-.2667,10.5014-.2667v1.7547c-2.9822,.671-5.185,2.0236-5.185,5.3935v20.6026h36.7414v-20.6026c0-3.3699-1.9611-4.7225-5.06-5.3935v-1.7547c1.5506,0,8.482,.2667,10.366,.2667,1.6276,0,8.5174-.2667,10.0555-.2667v1.7547c-2.9739,.671-5.183,2.0236-5.183,5.3935v49.3122c0,3.2406,2.0674,4.5911,5.183,5.4018v1.6214c-1.538,0-8.4279-.1355-10.0555-.1355-1.8839,0-8.8154,.1355-10.366,.1355v-1.6214c2.9572-.6794,5.06-2.0277,5.06-5.4018v-23.3036h-36.7414v23.3036c0,3.3741,2.0611,4.5911,5.185,5.4018v1.6214c-1.5546,0-8.6133-.1355-10.5014-.1355-1.6421,0-8.3736,.1355-9.9345,.1355v-1.6214h0Z" fill="#fff"/><path d="M657.3509,86.6704c2.3008,.4168,6.5563,.6815,9.9096,.6815,18.9856,0,28.8658-11.4288,28.8658-27.3633,0-16.5243-10.4242-28.151-28.1758-28.151-3.6179,0-8.159,.2688-10.5995,.6669v54.166h0Zm-16.0844,3.2469c3.8096-.6794,5.9061-2.1861,5.9061-5.6707V35.2053c0-3.3824-2.0716-4.7203-5.7477-5.3977v-1.7526c2.1132,0,9.0217,.2688,10.9368,.2688,3.0866,0,11.7041-.6794,18.4104-.6794,22.6034,0,36.3267,12.6188,36.3267,31.8168,0,18.6499-14.2777,32.4713-37.5791,32.4713-6.7169,0-14.6841-.5293-17.8082-.5293-1.8921,0-8.3318,.2688-10.4449,.2688v-1.7548h0Z" fill="#fff"/><path d="M385.4417,58.2005c2.0194,.2646,4.9954,.4001,7.9422,.4001,11.8893,0,15.6177-6.8376,15.6177-12.8876,0-8.5758-5.7123-13.8776-16.12-13.8776-2.1528,0-5.2767,.2709-7.4399,.669v25.6961h0Zm0,25.8648c0,3.2636,2.0756,5.0413,5.8936,5.852v1.7548c-2.1216,0-9.0385-.2688-11.0266-.2688-1.6798,0-8.459,.2688-10.5868,.2688v-1.7548c3.5408-.6773,5.631-2.4341,5.631-5.852V35.3699c0-2.9947-1.6276-4.887-5.6269-5.5623v-1.7526c2.1257,0,8.8342,.2667,10.7161,.2667,3.1031,0,11.9248-.5189,15.3968-.5189,15.1905,0,23.6475,6.2833,23.6475,17.0411,0,8.4715-6.3042,14.1776-15.9908,16.5305,0,0,2.1883,1.2816,4.4015,3.8576,2.6904,3.1531,10.0888,13.7483,13.0815,17.3807,2.9927,3.6283,6.8252,7.6921,10.9348,7.8776v1.4234c-1.9631,.4294-5.1142,.794-7.5192,.794-5.183,0-9.3031-1.8152-13.296-6.6647-3.4575-4.2056-9.4908-13.1544-12.9523-17.5726-2.2132-2.8134-4.8725-5.0141-9.7637-5.8145-.9628-.1625-1.8694-.2938-2.9405-.4126v21.8218h0Z" fill="#fff"/><path d="M585.7708,58.2005c2.0299,.2646,4.9934,.4001,7.9445,.4001,11.8852,0,15.6135-6.8376,15.6135-12.8876,0-8.5758-5.7165-13.8776-16.1116-13.8776-2.1633,0-5.283,.2709-7.4464,.669v25.6961h0Zm0,25.8648c0,3.2636,2.08,5.0413,5.8896,5.852v1.7548c-2.1174,0-9.0259-.2688-11.0203-.2688-1.6985,0-8.4611,.2688-10.5869,.2688v-1.7548c3.5345-.6773,5.6227-2.4341,5.6227-5.852V35.3699c0-2.9947-1.6339-4.887-5.6207-5.5623v-1.7526c2.1404,0,8.8176,.2667,10.7119,.2667,3.1094,0,11.9227-.5189,15.3864-.5189,15.2133,0,23.6537,6.2833,23.6537,17.0411,0,8.4715-6.2958,14.1776-15.9948,16.5305,0,0,2.2089,1.2816,4.4013,3.8576,2.7051,3.1531,10.1033,13.7483,13.094,17.3807,3.001,3.6283,6.8356,7.6921,10.9183,7.8776v1.4234c-1.9361,.4294-5.106,.794-7.4921,.794-5.1913,0-9.3176-1.8152-13.3128-6.6647-3.4449-4.2056-9.474-13.1544-12.9522-17.5726-2.2091-2.8134-4.8725-5.0141-9.7532-5.8145-.9712-.1625-1.8715-.2938-2.9448-.4126v21.8218h0Z" fill="#fff"/><path d="M333.8349,66.1427l-10.118-23.5724-9.4219,23.5724h19.5399Zm-40.5031,23.7725c4.02-.9482,6.227-3.5449,7.6941-7.0315l20.3464-48.9538c.8607-2.034,1.8694-6.1937,1.8694-6.1937h5.6956s1.0212,4.168,1.8673,6.202l21.503,49.0789c1.5255,3.3802,3.1906,5.8165,7.4671,6.8981l-.0125,1.6255c-2.3278,0-9.5636-.1375-11.2141-.1375-1.6381,0-8.5424,.1375-10.8745,.1375l.0083-1.6255c3.1345-.7752,4.1202-2.3716,4.1202-3.9096,0-1.3109-.5377-2.7843-1.192-4.3202l-4.6225-10.543h-23.6974l-4.2285,10.6013c-.4793,1.2025-1.042,2.9011-1.042,4.043,0,1.7674,.9232,3.1803,4.4744,4.1285l-.0083,1.6255c-2.1049,0-7.6505-.1375-8.9614-.1375l-9.2009,.1375,.0083-1.6255h0Z" fill="#fff"/><path d="M535.4187,66.1427l-10.1263-23.5724-9.4198,23.5724h19.5461Zm-40.5114,23.7725c4.0159-.9482,6.2312-3.5449,7.692-7.0315l20.3548-48.9538c.8628-2.034,1.8777-6.1937,1.8777-6.1937h5.6936s1.0065,4.168,1.8548,6.202l21.5113,49.0789c1.5151,3.3802,3.1865,5.8165,7.4483,6.8981l-.0062,1.6255c-2.3195,0-9.5636-.1375-11.2142-.1375-1.6297,0-8.5382,.1375-10.8661,.1375l.0021-1.6255c3.1531-.7752,4.116-2.3716,4.116-3.9096,0-1.3109-.5314-2.7843-1.1838-4.3202l-4.6307-10.543h-23.6954l-4.2286,10.6013c-.4793,1.2025-1.0399,2.9011-1.0399,4.043,0,1.7674,.917,3.1803,4.4786,4.1285l-.0021,1.6255c-2.109,0-7.6567-.1375-8.9717-.1375l-9.1989,.1375,.0083-1.6255h0Z" fill="#fff"/></g><g><path d="M230.1678,118.6977c2.0571,0,3.9399,.3467,5.6475,1.0391s3.1772,1.667,4.4077,2.9248c1.23,1.2578,2.1812,2.7461,2.854,4.4678,.6724,1.7217,1.0083,3.624,1.0083,5.708s-.3325,3.9912-.998,5.7188c-.666,1.7275-1.6138,3.2275-2.8442,4.498s-2.6899,2.2529-4.377,2.9453c-1.688,.6924-3.5674,1.0381-5.6382,1.0381-2.0571,0-3.9365-.3457-5.6377-1.0381s-3.1699-1.6641-4.4072-2.915-2.1919-2.7402-2.8643-4.4678-1.0083-3.627-1.0083-5.6982c0-2.084,.3325-3.9941,.998-5.7285,.666-1.7344,1.6138-3.2373,2.8442-4.5088,1.2305-1.2705,2.6929-2.252,4.3872-2.9443s3.5703-1.0391,5.6279-1.0391Zm.2017,25.9805c2.084,0,3.8589-.4541,5.3247-1.3613,1.4658-.9082,2.5889-2.1992,3.3687-3.873,.7798-1.6748,1.1699-3.6611,1.1699-5.9609,0-2.6221-.4204-4.8574-1.2607-6.707-.8403-1.8486-2.0239-3.2637-3.5498-4.2451-1.5264-.9814-3.3252-1.4727-5.396-1.4727s-3.8423,.4531-5.3149,1.3613c-1.4722,.9072-2.5952,2.1982-3.3687,3.873-.7734,1.6738-1.1597,3.6611-1.1597,5.96,0,2.6094,.4165,4.8408,1.2505,6.6973,.834,1.8555,2.0171,3.2744,3.5503,4.2559,1.5327,.9814,3.3281,1.4727,5.3857,1.4727Z" fill="#fff"/><path d="M276.3992,130.5786h-24.8306l-.8267,.4844-3.5908-.7666v-.8477l3.873-1.3105,.9883,.1611h21.9458l4.0947-.4033h.6255l-.1816,3.6709v13.0098l3.1465,.9082v1.1494h-9.6011v-1.1494l3.167-.9082v-15.0273l1.1899,1.0293Zm-18.9404,16.0557h-9.8838v-1.1494l3.167-.9082v-17.0039c0-1.6133,.272-3.0117,.8169-4.1953,.5444-1.1826,1.2837-2.168,2.2188-2.9551,.9346-.7861,2-1.375,3.1968-1.7646s2.4473-.585,3.752-.585c.9409,0,1.7881,.0801,2.5415,.2422,.7529,.1611,1.4321,.3896,2.0371,.6855,.6055,.2959,1.1567,.666,1.6543,1.1094l-2.3198,2.7432c-.6855-.9277-1.459-1.6172-2.3193-2.0674-.8608-.4502-1.7886-.6758-2.7837-.6758-1.0762,0-2.0308,.2188-2.8643,.6553-.834,.4375-1.4824,1.0859-1.9468,1.9463-.4639,.8613-.6958,1.9238-.6958,3.1875v18.6777l3.4292,.9082v1.1494Zm8.8145-2.0576l3.4092,.9082v1.1494h-9.8838v-1.1494l3.1665-.9082v-17.2461c0-1.707,.2759-3.1768,.8271-4.4072s1.3042-2.2383,2.2593-3.0254c.9546-.7861,2.0371-1.3711,3.2476-1.7549,1.21-.3828,2.481-.5752,3.812-.5752,1.1699,0,2.1147,.1084,2.834,.3232s1.2437,.5078,1.5737,.877c.3291,.3701,.4941,.7773,.4941,1.2207,0,.417-.0942,.7803-.2827,1.0889-.1885,.3096-.4507,.5488-.7866,.7168s-.7129,.252-1.1294,.252c-.3765,0-.7163-.1143-1.0186-.3428-.3027-.2285-.6187-.4912-.9482-.7871s-.7026-.5615-1.1196-.7969c-.4165-.2344-.9146-.3525-1.4922-.3525-.915,0-1.7485,.1885-2.5015,.5645-.7534,.377-1.3516,.9854-1.7949,1.8252-.4438,.8408-.666,1.9668-.666,3.3789v19.041Z" fill="#fff"/><path d="M294.5525,127.896c1.3042,0,2.3296,.1445,3.0762,.4336,.7461,.2891,1.2808,.6426,1.6035,1.0586,.3228,.417,.4839,.8203,.4839,1.2109,0,.417-.0908,.793-.272,1.1289-.1816,.3369-.4336,.5986-.7563,.7871s-.6929,.2822-1.1094,.2822c-.2964,0-.6021-.0938-.918-.2822s-.6323-.4199-.9482-.6963c-.3159-.2754-.6387-.5508-.9683-.8271-.3296-.2754-.6689-.5068-1.0186-.6953s-.6992-.2822-1.0488-.2822c-.9277,0-1.7852,.2314-2.5718,.6953s-1.4155,1.1699-1.8857,2.1182c-.4712,.9482-.7061,2.1416-.7061,3.5801,0,1.6406,.2725,3.0498,.8169,4.2256,.5444,1.1768,1.3276,2.0752,2.3501,2.6934,1.0215,.6182,2.2451,.9277,3.6709,.9277,.8335,0,1.6709-.1475,2.5112-.4434s1.6772-.7197,2.5112-1.2715l.3228,1.0898c-.7261,.7529-1.4692,1.3818-2.229,1.8857s-1.5396,.8838-2.3398,1.1396c-.7998,.2549-1.6235,.3828-2.4707,.3828-1.6675,0-3.1367-.3828-4.4072-1.1494-1.271-.7666-2.2627-1.8359-2.9756-3.207-.7129-1.3721-1.0688-2.9717-1.0688-4.8008,0-1.4521,.2319-2.7871,.6958-4.0039s1.1362-2.2725,2.0171-3.167c.8809-.8936,1.9634-1.5859,3.2476-2.0771s2.7466-.7363,4.3872-.7363Z" fill="#fff"/><path d="M311.2337,127.896c1.6001,0,2.9351,.3359,4.0039,1.0088,1.0693,.6719,1.8926,1.6572,2.4712,2.9541,.5781,1.2988,.9141,2.8887,1.0083,4.7705h-13.4136v-1.8154l11.1343-.3223-1.311,.7061c-.0674-1.1426-.2656-2.1084-.5952-2.8945-.3296-.7871-.7832-1.3848-1.3613-1.7949s-1.3047-.6152-2.1782-.6152c-1.0356,0-1.9365,.2549-2.7031,.7666-.7666,.5107-1.3584,1.2705-1.7749,2.2793-.417,1.0078-.6255,2.2656-.6255,3.7715,0,1.627,.2925,3.002,.8774,4.125s1.4224,1.9736,2.5112,2.5518c1.0894,.5781,2.4072,.8672,3.9536,.8672,.6318,0,1.2437-.0703,1.8354-.2119,.5918-.1406,1.1665-.3389,1.7246-.5947s1.0923-.5576,1.6035-.9082l.3433,1.0898c-.7534,.7393-1.5264,1.3643-2.3198,1.876-.7935,.5107-1.6104,.8936-2.4507,1.1494-.8408,.2549-1.6978,.3828-2.5718,.3828-1.7349,0-3.2646-.3867-4.5889-1.1592-1.3247-.7734-2.3638-1.8594-3.1167-3.2578s-1.1294-3.0322-1.1294-4.9014c0-1.8828,.353-3.5635,1.0591-5.043s1.7075-2.6455,3.0054-3.5c1.2974-.8535,2.834-1.2803,4.6089-1.2803Z" fill="#fff"/><path d="M340.8641,147.0376c-1.8691,0-3.4966-.3965-4.8813-1.1895-1.3853-.7939-2.4609-1.8994-3.2271-3.3184-.7666-1.4189-1.1499-3.0625-1.1499-4.9316,0-1.9092,.3999-3.5938,1.2002-5.0527,.7998-1.459,1.9092-2.5986,3.3281-3.4189,1.4185-.8203,3.0562-1.2305,4.9116-1.2305,1.8691,0,3.4961,.3936,4.8813,1.1797,1.3848,.7871,2.4609,1.8896,3.2275,3.3086,.7661,1.418,1.1494,3.0693,1.1494,4.9512,0,1.9102-.3999,3.5938-1.2002,5.0527-.7998,1.46-1.9092,2.5996-3.3281,3.4189-1.4189,.8203-3.0557,1.2305-4.9116,1.2305Zm.0605-2.0371c1.1699,0,2.1885-.252,3.0562-.7559,.8672-.5049,1.5396-1.2744,2.0171-2.3096,.4771-1.0361,.7158-2.3672,.7158-3.9941,0-1.748-.2251-3.2178-.6758-4.4072-.4507-1.1904-1.1025-2.0879-1.9565-2.6934-.854-.6045-1.8857-.9072-3.0962-.9072-1.1699,0-2.1885,.249-3.0557,.7461-.8677,.498-1.54,1.2676-2.0171,2.3096-.4775,1.042-.7163,2.3701-.7163,3.9844,0,1.748,.2251,3.2168,.6758,4.4072,.4502,1.1895,1.106,2.0908,1.9668,2.7021,.8604,.6123,1.8892,.918,3.0859,.918Z" fill="#fff"/><path d="M357.4236,130.5786l-.8267,.4844-3.5908-.7666v-.8477l3.873-1.3105,.8472,.1611h8.4316l-.2422,2.2793h-8.4922Zm2.4609,13.998l3.5703,.9082v1.1494h-10.0249v-1.1494l3.167-.9082v-17.2461c0-1.707,.272-3.1768,.8169-4.4072,.5444-1.2305,1.2939-2.2383,2.249-3.0254,.9546-.7861,2.0405-1.3711,3.2573-1.7549,1.2168-.3828,2.4844-.5752,3.8022-.5752,.874,0,1.6138,.0645,2.2188,.1924,.6055,.1279,1.0928,.2988,1.4624,.5137,.3696,.2158,.6387,.4678,.8071,.7568,.168,.2891,.252,.6016,.252,.9375,0,.6055-.2017,1.0967-.605,1.4727-.4033,.377-.9077,.5654-1.5127,.5654-.3633,0-.686-.1143-.9683-.3438-.2827-.2285-.5752-.4873-.8774-.7764-.3027-.2891-.6626-.5479-1.0791-.7764-.417-.2285-.9414-.3428-1.5737-.3428-.9414,0-1.7847,.1885-2.5312,.5645-.7461,.377-1.3384,.9854-1.7749,1.8252-.4375,.8408-.6558,1.9668-.6558,3.3789v19.041Z" fill="#fff"/><path d="M388.7488,121.3803l-3.2476-1.0283v-1.251h10.731v1.251l-3.5703,.9883,9.2788,22.8135h-1.2305l8.1689-22.8135-3.4492-.9883v-1.251h9.1577v1.251l-3.187,.9883-9.6216,25.6973h-2.3999l-10.6304-25.6572Z" fill="#fff"/><path d="M422.555,127.896l-.1816,3.6709v13.0098l3.1465,.9082v1.1494h-9.6011v-1.1494l3.1665-.9082v-12.4854c-.1479-.1338-.3965-.3027-.7461-.5039-.3501-.2021-.7432-.4072-1.1802-.6152-.437-.209-.8643-.3867-1.2808-.5352v-.8271l6.0513-1.7139h.6255Zm-2.0977-5.2852c-.7939,0-1.4395-.2314-1.9365-.6953-.4976-.4639-.7466-1.0723-.7466-1.8262,0-.7529,.249-1.3613,.7466-1.8252,.4971-.4639,1.1426-.6963,1.9365-.6963,.793,0,1.4385,.2324,1.936,.6963s.7466,1.0723,.7466,1.8252c0,.7539-.249,1.3623-.7466,1.8262s-1.1431,.6953-1.936,.6953Z" fill="#fff"/><path d="M438.429,127.896c1.3042,0,2.3296,.1445,3.0762,.4336,.7461,.2891,1.2808,.6426,1.6035,1.0586,.3228,.417,.4839,.8203,.4839,1.2109,0,.417-.0908,.793-.272,1.1289-.1816,.3369-.4336,.5986-.7563,.7871s-.6929,.2822-1.1094,.2822c-.2964,0-.6021-.0938-.918-.2822s-.6323-.4199-.9482-.6963c-.3159-.2754-.6387-.5508-.9683-.8271-.3296-.2754-.6689-.5068-1.0186-.6953s-.6992-.2822-1.0488-.2822c-.9277,0-1.7852,.2314-2.5718,.6953s-1.4155,1.1699-1.8857,2.1182c-.4712,.9482-.7061,2.1416-.7061,3.5801,0,1.6406,.2725,3.0498,.8169,4.2256,.5444,1.1768,1.3276,2.0752,2.3501,2.6934,1.0215,.6182,2.2451,.9277,3.6709,.9277,.8335,0,1.6709-.1475,2.5112-.4434s1.6772-.7197,2.5112-1.2715l.3228,1.0898c-.7261,.7529-1.4692,1.3818-2.229,1.8857s-1.5396,.8838-2.3398,1.1396c-.7998,.2549-1.6235,.3828-2.4707,.3828-1.6675,0-3.1367-.3828-4.4072-1.1494-1.271-.7666-2.2627-1.8359-2.9756-3.207-.7129-1.3721-1.0688-2.9717-1.0688-4.8008,0-1.4521,.2319-2.7871,.6958-4.0039s1.1362-2.2725,2.0171-3.167c.8809-.8936,1.9634-1.5859,3.2476-2.0771s2.7466-.7363,4.3872-.7363Z" fill="#fff"/><path d="M455.1106,127.896c1.6001,0,2.9351,.3359,4.0039,1.0088,1.0693,.6719,1.8926,1.6572,2.4712,2.9541,.5781,1.2988,.9141,2.8887,1.0083,4.7705h-13.4136v-1.8154l11.1343-.3223-1.311,.7061c-.0674-1.1426-.2656-2.1084-.5952-2.8945-.3296-.7871-.7832-1.3848-1.3613-1.7949s-1.3047-.6152-2.1782-.6152c-1.0356,0-1.9365,.2549-2.7031,.7666-.7666,.5107-1.3584,1.2705-1.7749,2.2793-.417,1.0078-.6255,2.2656-.6255,3.7715,0,1.627,.2925,3.002,.8774,4.125s1.4224,1.9736,2.5112,2.5518c1.0894,.5781,2.4072,.8672,3.9536,.8672,.6318,0,1.2437-.0703,1.8354-.2119,.5918-.1406,1.1665-.3389,1.7246-.5947s1.0923-.5576,1.6035-.9082l.3433,1.0898c-.7534,.7393-1.5264,1.3643-2.3198,1.876-.7935,.5107-1.6104,.8936-2.4507,1.1494-.8408,.2549-1.6978,.3828-2.5718,.3828-1.7349,0-3.2646-.3867-4.5889-1.1592-1.3247-.7734-2.3638-1.8594-3.1167-3.2578s-1.1294-3.0322-1.1294-4.9014c0-1.8828,.353-3.5635,1.0591-5.043s1.7075-2.6455,3.0054-3.5c1.2974-.8535,2.834-1.2803,4.6089-1.2803Z" fill="#fff"/><path d="M482.7239,119.101v25.2949l3.4492,1.0078v1.2305h-10.5088v-1.2305l3.4492-1.0078v-23.0557l-3.4492-.9883v-1.251h7.0596Zm11.3965,7.9277c0-1.2109-.249-2.2363-.7461-3.0762-.4976-.8408-1.3384-1.4727-2.5215-1.8965-1.1836-.4238-2.8037-.6348-4.8608-.6348h-6.374l.1812-2.3203h7.7861c2.501,0,4.5083,.333,6.021,.999,1.5127,.665,2.6089,1.583,3.2881,2.7529,.6787,1.1699,1.0186,2.501,1.0186,3.9941,0,1.5195-.3433,2.8945-1.0288,4.125-.686,1.2305-1.772,2.2119-3.2578,2.9443-1.4858,.7334-3.4258,1.0996-5.8193,1.0996h-8.0078l-.1812-2.3193h8.4512c1.1968,0,2.249-.209,3.1567-.626,.9077-.416,1.6172-1.0449,2.1284-1.8857,.5107-.8398,.7661-1.8926,.7661-3.1562Z" fill="#fff"/><path d="M506.888,131.7885v12.7881l3.3486,.9082v1.1494h-9.8032v-1.1494l3.167-.9082v-12.1826c-.1748-.1611-.4204-.333-.7363-.5146s-.6826-.373-1.0991-.5752c-.417-.2012-.8745-.4092-1.3716-.625v-.6045l5.4458-2.2197h.5449l.5039,3.9336Zm6.1323-3.792c.6719,0,1.1797,.1719,1.5225,.5146,.3433,.3428,.5146,.8105,.5146,1.4014,0,.6865-.1685,1.2275-.5044,1.624-.3364,.3965-.7734,.5947-1.311,.5947-.417,0-.8306-.043-1.2407-.1309-.4102-.0869-.8267-.1709-1.2505-.252-.4233-.0811-.8706-.1211-1.3413-.1211-.3096,0-.6421,.0332-.9985,.1006s-.7095,.1748-1.0591,.3232c-.3496,.1475-.6855,.3359-1.0083,.5645l-.5044-.7061c.9146-.7393,1.7314-1.3584,2.4507-1.8555s1.3618-.8975,1.9263-1.2002c.5649-.3027,1.0796-.5215,1.5435-.6553,.4639-.1348,.8838-.2021,1.2607-.2021Z" fill="#fff"/><path d="M525.9095,147.0376c-1.8691,0-3.4966-.3965-4.8813-1.1895-1.3853-.7939-2.4609-1.8994-3.2271-3.3184-.7666-1.4189-1.1499-3.0625-1.1499-4.9316,0-1.9092,.3999-3.5938,1.2002-5.0527,.7998-1.459,1.9092-2.5986,3.3281-3.4189,1.4185-.8203,3.0562-1.2305,4.9116-1.2305,1.8691,0,3.4961,.3936,4.8813,1.1797,1.3848,.7871,2.4609,1.8896,3.2275,3.3086,.7661,1.418,1.1494,3.0693,1.1494,4.9512,0,1.9102-.3999,3.5938-1.2002,5.0527-.7998,1.46-1.9092,2.5996-3.3281,3.4189-1.4189,.8203-3.0557,1.2305-4.9116,1.2305Zm.0605-2.0371c1.1699,0,2.1885-.252,3.0562-.7559,.8672-.5049,1.5396-1.2744,2.0171-2.3096,.4771-1.0361,.7158-2.3672,.7158-3.9941,0-1.748-.2251-3.2178-.6758-4.4072-.4507-1.1904-1.1025-2.0879-1.9565-2.6934-.854-.6045-1.8857-.9072-3.0962-.9072-1.1699,0-2.1885,.249-3.0557,.7461-.8677,.498-1.54,1.2676-2.0171,2.3096-.4775,1.042-.7163,2.3701-.7163,3.9844,0,1.748,.2251,3.2168,.6758,4.4072,.4502,1.1895,1.106,2.0908,1.9668,2.7021,.8604,.6123,1.8892,.918,3.0859,.918Z" fill="#fff"/><path d="M555.6409,130.2153l-6.9185,16.8223h-1.9365l-7.7656-16.5596-2.7231-.9883v-1.1904h9.1777v1.1904l-2.8237,.8672,6.1318,13.1309h-.4238l5.1436-13.2324-2.7832-.7656v-1.1904h7.2007v1.1904l-2.2793,.7256Z" fill="#fff"/><path d="M568.389,147.0376c-1.8691,0-3.4966-.3965-4.8813-1.1895-1.3853-.7939-2.4609-1.8994-3.2271-3.3184-.7666-1.4189-1.1499-3.0625-1.1499-4.9316,0-1.9092,.3999-3.5938,1.2002-5.0527,.7998-1.459,1.9092-2.5986,3.3281-3.4189,1.4185-.8203,3.0562-1.2305,4.9116-1.2305,1.8691,0,3.4961,.3936,4.8813,1.1797,1.3848,.7871,2.4609,1.8896,3.2275,3.3086,.7661,1.418,1.1494,3.0693,1.1494,4.9512,0,1.9102-.3999,3.5938-1.2002,5.0527-.7998,1.46-1.9092,2.5996-3.3281,3.4189-1.4189,.8203-3.0557,1.2305-4.9116,1.2305Zm.0605-2.0371c1.1699,0,2.1885-.252,3.0562-.7559,.8672-.5049,1.5396-1.2744,2.0171-2.3096,.4771-1.0361,.7158-2.3672,.7158-3.9941,0-1.748-.2251-3.2178-.6758-4.4072-.4507-1.1904-1.1025-2.0879-1.9565-2.6934-.854-.6045-1.8857-.9072-3.0962-.9072-1.1699,0-2.1885,.249-3.0557,.7461-.8677,.498-1.54,1.2676-2.0171,2.3096-.4775,1.042-.7163,2.3701-.7163,3.9844,0,1.748,.2251,3.2168,.6758,4.4072,.4502,1.1895,1.106,2.0908,1.9668,2.7021,.8604,.6123,1.8892,.918,3.0859,.918Z" fill="#fff"/><path d="M588.5794,127.896c.8335,0,1.6167,.0742,2.3501,.2217,.7324,.1484,1.563,.4102,2.4912,.7871l.4033,4.9619h-1.4927l-2.0977-4.9424,1.9966,1.876c-.6587-.376-1.2979-.6582-1.916-.8467-.6187-.1885-1.2373-.2832-1.856-.2832-1.2373,0-2.1919,.2256-2.8643,.6758-.6724,.4512-1.0083,1.0928-1.0083,1.9268,0,.7393,.2148,1.3213,.6455,1.7451,.4302,.4229,.9985,.7656,1.7041,1.0283,.7061,.2617,1.4692,.5215,2.2896,.7764,.6182,.1885,1.2334,.4102,1.8457,.666,.6118,.2559,1.1699,.582,1.6743,.9785,.5039,.3965,.9106,.9111,1.2202,1.543,.3091,.6318,.4639,1.4189,.4639,2.3594,0,1.2109-.3062,2.2363-.918,3.0762-.6118,.8408-1.4722,1.4795-2.5815,1.916-1.1094,.4375-2.4307,.6562-3.9639,.6562-.874,0-1.7314-.0713-2.5718-.2119-.8403-.1416-1.5967-.3535-2.269-.6357l-.9077-5.1836h1.5938l2.6221,5.2646-2.481-1.7549c.5107,.2148,.9712,.376,1.3813,.4844,.4102,.1074,.8037,.1777,1.1802,.2109,.3765,.0342,.7529,.0508,1.1294,.0508,1.5464,0,2.7334-.2588,3.5605-.7764,.8267-.5176,1.2402-1.3008,1.2402-2.3496,0-.6592-.1611-1.1875-.4839-1.584s-.7534-.7188-1.291-.9678c-.5381-.249-1.1196-.4639-1.7446-.6455-.6255-.1816-1.2407-.3799-1.8457-.5957-.7939-.2822-1.52-.625-2.1787-1.0283s-1.1831-.9443-1.5732-1.624c-.3901-.6787-.585-1.5625-.585-2.6523,0-1.1025,.2856-2.0332,.8574-2.7939,.5713-.7588,1.3716-1.3379,2.4004-1.7344,1.0283-.3965,2.2217-.5947,3.5801-.5947Z" fill="#fff"/><path d="M603.2435,141.309c0,1.0088,.2886,1.7422,.8672,2.1992,.5781,.457,1.4321,.6855,2.5615,.6855,.5112,0,1.0659-.0508,1.6641-.1514s1.2471-.252,1.9468-.4541v1.2109c-.8745,.5645-1.6411,1.0078-2.2998,1.3311-.6587,.3223-1.2505,.5449-1.7749,.665-.5244,.1211-1.0288,.1816-1.5127,.1816-.9277,0-1.7485-.1641-2.4609-.4941-.7129-.3291-1.2744-.8271-1.6841-1.4922-.4106-.666-.6152-1.4893-.6152-2.4707v-11.3564l-2.7432-1.3721v-.6855c.4702-.2285,.9004-.4541,1.2905-.6758s.7495-.4502,1.0791-.6855,.6421-.4844,.938-.7461c.2959-.2627,.5918-.541,.8877-.8379,.2954-.2949,.5918-.6182,.8877-.9678h.9683v16.1162Zm-1.291-10.7305l.04-2.2793h7.7661l-.2222,2.2793h-7.584Z" fill="#fff"/><path d="M625.7937,130.5786l-.8267,.4844-3.5908-.7666v-.8477l3.873-1.3105,.8472,.1611h8.4316l-.2422,2.2793h-8.4922Zm2.4609,13.998l3.5703,.9082v1.1494h-10.0249v-1.1494l3.167-.9082v-17.2461c0-1.707,.272-3.1768,.8169-4.4072,.5444-1.2305,1.2939-2.2383,2.249-3.0254,.9546-.7861,2.0405-1.3711,3.2573-1.7549,1.2168-.3828,2.4844-.5752,3.8022-.5752,.874,0,1.6138,.0645,2.2188,.1924,.6055,.1279,1.0928,.2988,1.4624,.5137,.3696,.2158,.6387,.4678,.8071,.7568,.168,.2891,.252,.6016,.252,.9375,0,.6055-.2017,1.0967-.605,1.4727-.4033,.377-.9077,.5654-1.5127,.5654-.3633,0-.686-.1143-.9683-.3438-.2827-.2285-.5752-.4873-.8774-.7764-.3027-.2891-.6626-.5479-1.0791-.7764-.417-.2285-.9414-.3428-1.5737-.3428-.9414,0-1.7847,.1885-2.5312,.5645-.7461,.377-1.3384,.9854-1.7749,1.8252-.4375,.8408-.6558,1.9668-.6558,3.3789v19.041Z" fill="#fff"/><path d="M645.3396,147.0376c-1.8691,0-3.4966-.3965-4.8813-1.1895-1.3853-.7939-2.4609-1.8994-3.2271-3.3184-.7666-1.4189-1.1499-3.0625-1.1499-4.9316,0-1.9092,.3999-3.5938,1.2002-5.0527,.7998-1.459,1.9092-2.5986,3.3281-3.4189,1.4185-.8203,3.0562-1.2305,4.9116-1.2305,1.8691,0,3.4961,.3936,4.8813,1.1797,1.3848,.7871,2.4609,1.8896,3.2275,3.3086,.7661,1.418,1.1494,3.0693,1.1494,4.9512,0,1.9102-.3999,3.5938-1.2002,5.0527-.7998,1.46-1.9092,2.5996-3.3281,3.4189-1.4189,.8203-3.0557,1.2305-4.9116,1.2305Zm.0605-2.0371c1.1699,0,2.1885-.252,3.0562-.7559,.8672-.5049,1.5396-1.2744,2.0171-2.3096,.4771-1.0361,.7158-2.3672,.7158-3.9941,0-1.748-.2251-3.2178-.6758-4.4072-.4507-1.1904-1.1025-2.0879-1.9565-2.6934-.854-.6045-1.8857-.9072-3.0962-.9072-1.1699,0-2.1885,.249-3.0557,.7461-.8677,.498-1.54,1.2676-2.0171,2.3096-.4775,1.042-.7163,2.3701-.7163,3.9844,0,1.748,.2251,3.2168,.6758,4.4072,.4502,1.1895,1.106,2.0908,1.9668,2.7021,.8604,.6123,1.8892,.918,3.0859,.918Z" fill="#fff"/><path d="M664.2391,131.7885v12.7881l3.3486,.9082v1.1494h-9.8032v-1.1494l3.167-.9082v-12.1826c-.1748-.1611-.4204-.333-.7363-.5146s-.6826-.373-1.0991-.5752c-.417-.2012-.8745-.4092-1.3716-.625v-.6045l5.4458-2.2197h.5449l.5039,3.9336Zm6.1323-3.792c.6719,0,1.1797,.1719,1.5225,.5146,.3433,.3428,.5146,.8105,.5146,1.4014,0,.6865-.1685,1.2275-.5044,1.624-.3364,.3965-.7734,.5947-1.311,.5947-.417,0-.8306-.043-1.2407-.1309-.4102-.0869-.8267-.1709-1.2505-.252-.4233-.0811-.8706-.1211-1.3413-.1211-.3096,0-.6421,.0332-.9985,.1006s-.7095,.1748-1.0591,.3232c-.3496,.1475-.6855,.3359-1.0083,.5645l-.5044-.7061c.9146-.7393,1.7314-1.3584,2.4507-1.8555s1.3618-.8975,1.9263-1.2002c.5649-.3027,1.0796-.5215,1.5435-.6553,.4639-.1348,.8838-.2021,1.2607-.2021Z" fill="#fff"/><path d="M706.638,144.3755l3.2476,1.0283v1.2305h-10.731v-1.2305l3.5703-1.0078-9.3594-22.8135h1.2305l-8.6333,22.8135,3.4292,1.0078v1.2305h-9.2583v-1.2305l3.187-1.0078,10.2266-25.6982h2.4004l10.6904,25.6777Zm-18.7993-7.625v-2.2793h13.7163v2.2793h-13.7163Z" fill="#fff"/><path d="M725.6385,134.1284c0-1.25-.3965-2.2617-1.1899-3.0352s-2.0308-1.1602-3.7114-1.1602c-1.3047,0-2.4106,.3027-3.3184,.9072-.9072,.6055-1.5967,1.4658-2.0674,2.582s-.7061,2.4404-.7061,3.9736,.249,2.8174,.7466,3.8525c.4971,1.0361,1.1968,1.8154,2.0977,2.3398s1.9766,.7871,3.2275,.7871c1.1025,0,2.168-.165,3.1968-.4941s2.0474-.8301,3.0562-1.5029v1.1904c-1.1431,.7529-2.1079,1.3613-2.8945,1.8252s-1.4595,.8135-2.0171,1.0488c-.5581,.2354-1.0562,.3936-1.4927,.4736-.437,.0811-.8843,.1211-1.3413,.1211-1.8154,0-3.3384-.3623-4.5688-1.0889s-2.1582-1.7451-2.7837-3.0557c-.625-1.3115-.938-2.834-.938-4.5693,0-1.6133,.2656-3.0625,.7969-4.3467s1.2607-2.3799,2.1885-3.2881c.9277-.9072,2.0073-1.5996,3.2373-2.0771,1.2305-.4775,2.5381-.7158,3.9233-.7158,.7666,0,1.4893,.0576,2.1685,.1709,.6787,.1152,1.3682,.2998,2.0674,.5547,.6992,.2559,1.4453,.5986,2.2393,1.0293l-1.9165,1.0889v-9.3184c-.1611-.1484-.4204-.3135-.7764-.4951-.3564-.1807-.75-.3662-1.1802-.5547-.4302-.1875-.8403-.3623-1.2305-.5244v-.7656l6.1924-1.5137h.5449l-.2622,3.5703v22.0068c.1211,.1074,.3022,.2314,.5444,.373s.5073,.2822,.7969,.4238c.2891,.1406,.5747,.2686,.8574,.3828,.2822,.1143,.5308,.1992,.7461,.252v.6865l-5.0225,1.7139h-.5244l-.686-3.5098v-9.3389Z" fill="#fff"/><path d="M751.6585,130.2153l-6.9185,16.8223h-1.9365l-7.7656-16.5596-2.7231-.9883v-1.1904h9.1777v1.1904l-2.8237,.8672,6.1318,13.1309h-.4238l5.1436-13.2324-2.7832-.7656v-1.1904h7.2007v1.1904l-2.2793,.7256Z" fill="#fff"/><path d="M768.0174,134.895l-.1011,1.8359c-1.8291,.3359-3.3081,.6787-4.4375,1.0283-1.1299,.3496-2.0005,.7158-2.6123,1.0996-.6118,.3828-1.0322,.7969-1.2607,1.2402s-.3428,.9414-.3428,1.4932c0,.9414,.2822,1.6572,.8472,2.1475,.5649,.4912,1.3179,.7363,2.2593,.7363,.7261,0,1.3882-.1611,1.9868-.4844,.5981-.3223,1.0757-.749,1.4321-1.2803,.356-.5312,.5347-1.1191,.5347-1.7646v-7.2617c0-1.1562-.2725-2.0439-.8174-2.6631-.5444-.6182-1.4893-.9277-2.834-.9277-.5513,0-1.1162,.0537-1.6943,.1611-.5781,.1084-1.1362,.2695-1.6738,.4844l1.21-1.1094c-.0806,.4443-.1646,.8604-.252,1.251-.0879,.3896-.1851,.7393-.2925,1.0488-.1079,.3096-.2354,.5781-.3833,.8066-.229,.3223-.5112,.541-.8472,.6553-.3364,.1143-.6992,.1719-1.0894,.1719-.5513,0-.9814-.1182-1.291-.3535-.3091-.2344-.4639-.5205-.4639-.8564,0-.4443,.2188-.915,.6558-1.4121,.4365-.498,1.0254-.9688,1.7646-1.4121,.7397-.4443,1.5903-.8066,2.5518-1.0898,.9614-.2822,1.9668-.4229,3.0156-.4229,1.3848,0,2.4976,.2012,3.3384,.6045,.8403,.4033,1.4487,.9922,1.8252,1.7656s.5649,1.7041,.5649,2.793v9.3398c0,.457,.0708,.834,.2119,1.1289,.1411,.2959,.3462,.5146,.6152,.6562,.2686,.1406,.605,.2109,1.0083,.2109,.3091,0,.6421-.0469,.9985-.1406,.356-.0938,.709-.2217,1.0591-.3838v1.2109c-.5918,.6045-1.2173,1.0518-1.876,1.3408-.6592,.2891-1.2778,.4336-1.8555,.4336-.7134,0-1.3213-.1641-1.8257-.4941-.5044-.3291-.8911-.8164-1.1597-1.4619-.2695-.6455-.417-1.4385-.4438-2.3799l.1411-.1416c-.1748,.9014-.5176,1.6943-1.0288,2.3799-.5112,.6865-1.1465,1.2178-1.9062,1.5938s-1.6035,.5645-2.5312,.5645c-1.5869,0-2.8574-.4131-3.8125-1.2402-.9546-.8271-1.4321-2.0068-1.4321-3.54,0-.8467,.168-1.6133,.5044-2.2998,.3359-.6855,.9448-1.3174,1.8257-1.8955,.8804-.5781,2.1211-1.126,3.7212-1.6436s3.6646-1.0254,6.1929-1.5234Z" fill="#fff"/><path d="M781.2693,131.7885v12.7881l3.147,.9082v1.1494h-9.6016v-1.1494l3.167-.9082v-12.1826c-.2153-.2021-.5752-.4404-1.0791-.7158-.5044-.2754-1.2139-.6084-2.1279-.999v-.6045l5.1836-2.2197h.5244l.7866,3.9336Zm6.1523,13.6963l3.1465-.9082v-9.8428c0-.8066-.1548-1.4824-.4639-2.0273-.3096-.5449-.7837-.958-1.4219-1.2402-.6392-.2822-1.4492-.4238-2.4307-.4238-1.022,0-2.0068,.1611-2.9551,.4844-.9482,.3223-1.6777,.7188-2.1885,1.1895l-.6255-.6855c.8877-.834,1.6772-1.5195,2.3701-2.0576,.6924-.5371,1.3315-.958,1.9165-1.2607s1.1699-.5137,1.7549-.6348,1.2202-.1816,1.9058-.1816c1.856,0,3.2241,.5312,4.105,1.5938,.8804,1.0615,1.3213,2.709,1.3213,4.9414v10.1455l3.207,.9082v1.1494h-9.6416v-1.1494Z" fill="#fff"/><path d="M809.6697,127.896c1.3042,0,2.3296,.1445,3.0762,.4336,.7461,.2891,1.2808,.6426,1.6035,1.0586,.3228,.417,.4839,.8203,.4839,1.2109,0,.417-.0908,.793-.272,1.1289-.1816,.3369-.4336,.5986-.7563,.7871s-.6929,.2822-1.1094,.2822c-.2964,0-.6021-.0938-.918-.2822s-.6323-.4199-.9482-.6963c-.3159-.2754-.6387-.5508-.9683-.8271-.3296-.2754-.6689-.5068-1.0186-.6953s-.6992-.2822-1.0488-.2822c-.9277,0-1.7852,.2314-2.5718,.6953s-1.4155,1.1699-1.8857,2.1182c-.4712,.9482-.7061,2.1416-.7061,3.5801,0,1.6406,.2725,3.0498,.8169,4.2256,.5444,1.1768,1.3276,2.0752,2.3501,2.6934,1.0215,.6182,2.2451,.9277,3.6709,.9277,.8335,0,1.6709-.1475,2.5112-.4434s1.6772-.7197,2.5112-1.2715l.3228,1.0898c-.7261,.7529-1.4692,1.3818-2.229,1.8857s-1.5396,.8838-2.3398,1.1396c-.7998,.2549-1.6235,.3828-2.4707,.3828-1.6675,0-3.1367-.3828-4.4072-1.1494-1.271-.7666-2.2627-1.8359-2.9756-3.207-.7129-1.3721-1.0688-2.9717-1.0688-4.8008,0-1.4521,.2319-2.7871,.6958-4.0039s1.1362-2.2725,2.0171-3.167c.8809-.8936,1.9634-1.5859,3.2476-2.0771s2.7466-.7363,4.3872-.7363Z" fill="#fff"/><path d="M826.3509,127.896c1.6001,0,2.9351,.3359,4.0039,1.0088,1.0693,.6719,1.8926,1.6572,2.4712,2.9541,.5781,1.2988,.9141,2.8887,1.0083,4.7705h-13.4136v-1.8154l11.1343-.3223-1.311,.7061c-.0674-1.1426-.2656-2.1084-.5952-2.8945-.3296-.7871-.7832-1.3848-1.3613-1.7949s-1.3047-.6152-2.1782-.6152c-1.0356,0-1.9365,.2549-2.7031,.7666-.7666,.5107-1.3584,1.2705-1.7749,2.2793-.417,1.0078-.6255,2.2656-.6255,3.7715,0,1.627,.2925,3.002,.8774,4.125s1.4224,1.9736,2.5112,2.5518c1.0894,.5781,2.4072,.8672,3.9536,.8672,.6318,0,1.2437-.0703,1.8354-.2119,.5918-.1406,1.1665-.3389,1.7246-.5947s1.0923-.5576,1.6035-.9082l.3433,1.0898c-.7534,.7393-1.5264,1.3643-2.3198,1.876-.7935,.5107-1.6104,.8936-2.4507,1.1494-.8408,.2549-1.6978,.3828-2.5718,.3828-1.7349,0-3.2646-.3867-4.5889-1.1592-1.3247-.7734-2.3638-1.8594-3.1167-3.2578s-1.1294-3.0322-1.1294-4.9014c0-1.8828,.353-3.5635,1.0591-5.043s1.7075-2.6455,3.0054-3.5c1.2974-.8535,2.834-1.2803,4.6089-1.2803Z" fill="#fff"/><path d="M844.5447,127.896c.8335,0,1.6167,.0742,2.3501,.2217,.7324,.1484,1.563,.4102,2.4912,.7871l.4033,4.9619h-1.4927l-2.0977-4.9424,1.9966,1.876c-.6587-.376-1.2979-.6582-1.916-.8467-.6187-.1885-1.2373-.2832-1.856-.2832-1.2373,0-2.1919,.2256-2.8643,.6758-.6724,.4512-1.0083,1.0928-1.0083,1.9268,0,.7393,.2148,1.3213,.6455,1.7451,.4302,.4229,.9985,.7656,1.7041,1.0283,.7061,.2617,1.4692,.5215,2.2896,.7764,.6182,.1885,1.2334,.4102,1.8457,.666,.6118,.2559,1.1699,.582,1.6743,.9785,.5039,.3965,.9106,.9111,1.2202,1.543,.3091,.6318,.4639,1.4189,.4639,2.3594,0,1.2109-.3062,2.2363-.918,3.0762-.6118,.8408-1.4722,1.4795-2.5815,1.916-1.1094,.4375-2.4307,.6562-3.9639,.6562-.874,0-1.7314-.0713-2.5718-.2119-.8403-.1416-1.5967-.3535-2.269-.6357l-.9077-5.1836h1.5938l2.6221,5.2646-2.481-1.7549c.5107,.2148,.9712,.376,1.3813,.4844,.4102,.1074,.8037,.1777,1.1802,.2109,.3765,.0342,.7529,.0508,1.1294,.0508,1.5464,0,2.7334-.2588,3.5605-.7764,.8267-.5176,1.2402-1.3008,1.2402-2.3496,0-.6592-.1611-1.1875-.4839-1.584s-.7534-.7188-1.291-.9678c-.5381-.249-1.1196-.4639-1.7446-.6455-.6255-.1816-1.2407-.3799-1.8457-.5957-.7939-.2822-1.52-.625-2.1787-1.0283s-1.1831-.9443-1.5732-1.624c-.3901-.6787-.585-1.5625-.585-2.6523,0-1.1025,.2856-2.0332,.8574-2.7939,.5713-.7588,1.3716-1.3379,2.4004-1.7344,1.0283-.3965,2.2217-.5947,3.5801-.5947Z" fill="#fff"/><path d="M869.7376,127.896l-.1816,3.6709v13.0098l3.1465,.9082v1.1494h-9.6011v-1.1494l3.1665-.9082v-12.4854c-.1479-.1338-.3965-.3027-.7461-.5039-.3501-.2021-.7432-.4072-1.1802-.6152-.437-.209-.8643-.3867-1.2808-.5352v-.8271l6.0513-1.7139h.6255Zm-2.0977-5.2852c-.7939,0-1.4395-.2314-1.9365-.6953-.4976-.4639-.7466-1.0723-.7466-1.8262,0-.7529,.249-1.3613,.7466-1.8252,.4971-.4639,1.1426-.6963,1.9365-.6963,.793,0,1.4385,.2324,1.936,.6963s.7466,1.0723,.7466,1.8252c0,.7539-.249,1.3623-.7466,1.8262s-1.1431,.6953-1.936,.6953Z" fill="#fff"/><path d="M881.3357,131.7885v12.7881l3.147,.9082v1.1494h-9.6016v-1.1494l3.167-.9082v-12.1826c-.2153-.2021-.5752-.4404-1.0791-.7158-.5044-.2754-1.2139-.6084-2.1279-.999v-.6045l5.1836-2.2197h.5244l.7866,3.9336Zm6.1523,13.6963l3.1465-.9082v-9.8428c0-.8066-.1548-1.4824-.4639-2.0273-.3096-.5449-.7837-.958-1.4219-1.2402-.6392-.2822-1.4492-.4238-2.4307-.4238-1.022,0-2.0068,.1611-2.9551,.4844-.9482,.3223-1.6777,.7188-2.1885,1.1895l-.6255-.6855c.8877-.834,1.6772-1.5195,2.3701-2.0576,.6924-.5371,1.3315-.958,1.9165-1.2607s1.1699-.5137,1.7549-.6348,1.2202-.1816,1.9058-.1816c1.856,0,3.2241,.5312,4.105,1.5938,.8804,1.0615,1.3213,2.709,1.3213,4.9414v10.1455l3.207,.9082v1.1494h-9.6416v-1.1494Z" fill="#fff"/><path d="M916.1702,121.3403v25.2939h-7.0596v-1.2305l3.4492-1.0078v-23.0557l-3.4492-.9883v-1.251h10.5088v1.251l-3.4492,.9883Zm13.5752,26.5654h-1.1294l-1.876-1.2715h-12.748v-2.3193h14.6035l-2.4204,.9678,3.752-7.3623,1.4521,.1416-1.6338,9.8438Z" fill="#fff"/><path d="M942.6346,127.896c1.6001,0,2.9351,.3359,4.0039,1.0088,1.0693,.6719,1.8926,1.6572,2.4712,2.9541,.5781,1.2988,.9141,2.8887,1.0083,4.7705h-13.4136v-1.8154l11.1343-.3223-1.311,.7061c-.0674-1.1426-.2656-2.1084-.5952-2.8945-.3296-.7871-.7832-1.3848-1.3613-1.7949s-1.3047-.6152-2.1782-.6152c-1.0356,0-1.9365,.2549-2.7031,.7666-.7666,.5107-1.3584,1.2705-1.7749,2.2793-.417,1.0078-.6255,2.2656-.6255,3.7715,0,1.627,.2925,3.002,.8774,4.125s1.4224,1.9736,2.5112,2.5518c1.0894,.5781,2.4072,.8672,3.9536,.8672,.6318,0,1.2437-.0703,1.8354-.2119,.5918-.1406,1.1665-.3389,1.7246-.5947s1.0923-.5576,1.6035-.9082l.3433,1.0898c-.7534,.7393-1.5264,1.3643-2.3198,1.876-.7935,.5107-1.6104,.8936-2.4507,1.1494-.8408,.2549-1.6978,.3828-2.5718,.3828-1.7349,0-3.2646-.3867-4.5889-1.1592-1.3247-.7734-2.3638-1.8594-3.1167-3.2578s-1.1294-3.0322-1.1294-4.9014c0-1.8828,.353-3.5635,1.0591-5.043s1.7075-2.6455,3.0054-3.5c1.2974-.8535,2.834-1.2803,4.6089-1.2803Z" fill="#fff"/><path d="M965.9314,134.895l-.1011,1.8359c-1.8291,.3359-3.3081,.6787-4.4375,1.0283-1.1299,.3496-2.0005,.7158-2.6123,1.0996-.6118,.3828-1.0322,.7969-1.2607,1.2402s-.3428,.9414-.3428,1.4932c0,.9414,.2822,1.6572,.8472,2.1475,.5649,.4912,1.3179,.7363,2.2593,.7363,.7261,0,1.3882-.1611,1.9868-.4844,.5981-.3223,1.0757-.749,1.4321-1.2803,.356-.5312,.5347-1.1191,.5347-1.7646v-7.2617c0-1.1562-.2725-2.0439-.8174-2.6631-.5444-.6182-1.4893-.9277-2.834-.9277-.5513,0-1.1162,.0537-1.6943,.1611-.5781,.1084-1.1362,.2695-1.6738,.4844l1.21-1.1094c-.0806,.4443-.1646,.8604-.252,1.251-.0879,.3896-.1851,.7393-.2925,1.0488-.1079,.3096-.2354,.5781-.3833,.8066-.229,.3223-.5112,.541-.8472,.6553-.3364,.1143-.6992,.1719-1.0894,.1719-.5513,0-.9814-.1182-1.291-.3535-.3091-.2344-.4639-.5205-.4639-.8564,0-.4443,.2188-.915,.6558-1.4121,.4365-.498,1.0254-.9688,1.7646-1.4121,.7397-.4443,1.5903-.8066,2.5518-1.0898,.9614-.2822,1.9668-.4229,3.0156-.4229,1.3848,0,2.4976,.2012,3.3384,.6045,.8403,.4033,1.4487,.9922,1.8252,1.7656s.5649,1.7041,.5649,2.793v9.3398c0,.457,.0708,.834,.2119,1.1289,.1411,.2959,.3462,.5146,.6152,.6562,.2686,.1406,.605,.2109,1.0083,.2109,.3091,0,.6421-.0469,.9985-.1406,.356-.0938,.709-.2217,1.0591-.3838v1.2109c-.5918,.6045-1.2173,1.0518-1.876,1.3408-.6592,.2891-1.2778,.4336-1.8555,.4336-.7134,0-1.3213-.1641-1.8257-.4941-.5044-.3291-.8911-.8164-1.1597-1.4619-.2695-.6455-.417-1.4385-.4438-2.3799l.1411-.1416c-.1748,.9014-.5176,1.6943-1.0288,2.3799-.5112,.6865-1.1465,1.2178-1.9062,1.5938s-1.6035,.5645-2.5312,.5645c-1.5869,0-2.8574-.4131-3.8125-1.2402-.9546-.8271-1.4321-2.0068-1.4321-3.54,0-.8467,.168-1.6133,.5044-2.2998,.3359-.6855,.9448-1.3174,1.8257-1.8955,.8804-.5781,2.1211-1.126,3.7212-1.6436s3.6646-1.0254,6.1929-1.5234Z" fill="#fff"/><path d="M979.1834,131.7885v12.7881l3.3486,.9082v1.1494h-9.8032v-1.1494l3.167-.9082v-12.1826c-.1748-.1611-.4204-.333-.7363-.5146s-.6826-.373-1.0991-.5752c-.417-.2012-.8745-.4092-1.3716-.625v-.6045l5.4458-2.2197h.5449l.5039,3.9336Zm6.1323-3.792c.6719,0,1.1797,.1719,1.5225,.5146,.3433,.3428,.5146,.8105,.5146,1.4014,0,.6865-.1685,1.2275-.5044,1.624-.3364,.3965-.7734,.5947-1.311,.5947-.417,0-.8306-.043-1.2407-.1309-.4102-.0869-.8267-.1709-1.2505-.252-.4233-.0811-.8706-.1211-1.3413-.1211-.3096,0-.6421,.0332-.9985,.1006s-.7095,.1748-1.0591,.3232c-.3496,.1475-.6855,.3359-1.0083,.5645l-.5044-.7061c.9146-.7393,1.7314-1.3584,2.4507-1.8555s1.3618-.8975,1.9263-1.2002c.5649-.3027,1.0796-.5215,1.5435-.6553,.4639-.1348,.8838-.2021,1.2607-.2021Z" fill="#fff"/><path d="M995.7435,131.7885v12.7881l3.147,.9082v1.1494h-9.6016v-1.1494l3.167-.9082v-12.1826c-.2153-.2021-.5752-.4404-1.0791-.7158-.5044-.2754-1.2139-.6084-2.1279-.999v-.6045l5.1836-2.2197h.5244l.7866,3.9336Zm6.1523,13.6963l3.1465-.9082v-9.8428c0-.8066-.1548-1.4824-.4639-2.0273-.3096-.5449-.7837-.958-1.4219-1.2402-.6392-.2822-1.4492-.4238-2.4307-.4238-1.022,0-2.0068,.1611-2.9551,.4844-.9482,.3223-1.6777,.7188-2.1885,1.1895l-.6255-.6855c.8877-.834,1.6772-1.5195,2.3701-2.0576,.6924-.5371,1.3315-.958,1.9165-1.2607s1.1699-.5137,1.7549-.6348,1.2202-.1816,1.9058-.1816c1.856,0,3.2241,.5312,4.105,1.5938,.8804,1.0615,1.3213,2.709,1.3213,4.9414v10.1455l3.207,.9082v1.1494h-9.6416v-1.1494Z" fill="#fff"/><path d="M1020.0896,127.896l-.1816,3.6709v13.0098l3.1465,.9082v1.1494h-9.6011v-1.1494l3.1665-.9082v-12.4854c-.1479-.1338-.3965-.3027-.7461-.5039-.3501-.2021-.7432-.4072-1.1802-.6152-.437-.209-.8643-.3867-1.2808-.5352v-.8271l6.0513-1.7139h.6255Zm-2.0977-5.2852c-.7939,0-1.4395-.2314-1.9365-.6953-.4976-.4639-.7466-1.0723-.7466-1.8262,0-.7529,.249-1.3613,.7466-1.8252,.4971-.4639,1.1426-.6963,1.9365-.6963,.793,0,1.4385,.2324,1.936,.6963s.7466,1.0723,.7466,1.8252c0,.7539-.249,1.3623-.7466,1.8262s-1.1431,.6953-1.936,.6953Z" fill="#fff"/><path d="M1031.6878,131.7885v12.7881l3.147,.9082v1.1494h-9.6016v-1.1494l3.167-.9082v-12.1826c-.2153-.2021-.5752-.4404-1.0791-.7158-.5044-.2754-1.2139-.6084-2.1279-.999v-.6045l5.1836-2.2197h.5244l.7866,3.9336Zm6.1523,13.6963l3.1465-.9082v-9.8428c0-.8066-.1548-1.4824-.4639-2.0273-.3096-.5449-.7837-.958-1.4219-1.2402-.6392-.2822-1.4492-.4238-2.4307-.4238-1.022,0-2.0068,.1611-2.9551,.4844-.9482,.3223-1.6777,.7188-2.1885,1.1895l-.6255-.6855c.8877-.834,1.6772-1.5195,2.3701-2.0576,.6924-.5371,1.3315-.958,1.9165-1.2607s1.1699-.5137,1.7549-.6348,1.2202-.1816,1.9058-.1816c1.856,0,3.2241,.5312,4.105,1.5938,.8804,1.0615,1.3213,2.709,1.3213,4.9414v10.1455l3.207,.9082v1.1494h-9.6416v-1.1494Z" fill="#fff"/><path d="M1057.4456,156.8813c-1.479,0-2.7734-.1074-3.8828-.3232-1.1094-.2148-2.0342-.5312-2.7734-.9473-.7397-.417-1.2944-.9248-1.6641-1.5234-.3701-.5986-.5547-1.2803-.5547-2.0469,0-.5518,.1411-1.0762,.4238-1.5732,.2822-.498,.729-.9551,1.3413-1.3721,.6118-.417,1.395-.7803,2.3496-1.0889,.9546-.3096,2.1113-.5518,3.4697-.7266h1.2305v.4443c-1.3721,.1611-2.4512,.4229-3.2378,.7861s-1.3413,.8066-1.6641,1.3311-.4839,1.1094-.4839,1.7549c0,.7402,.1982,1.3682,.5947,1.8867,.3965,.5176,1.019,.9072,1.8662,1.1699,.8472,.2617,1.9429,.3926,3.2876,.3926,1.4521,0,2.686-.168,3.7012-.5039,1.0156-.3359,1.7886-.7969,2.3198-1.3818s.7969-1.2539,.7969-2.0068c0-.5117-.1079-.9482-.3228-1.3115-.2153-.3623-.585-.665-1.1094-.9072s-1.2476-.4307-2.1685-.5645c-.9214-.1348-2.0947-.2295-3.52-.2832s-2.5986-.1914-3.5195-.4131c-.9214-.2217-1.644-.5107-2.1685-.8672s-.8911-.7637-1.0991-1.2207c-.209-.457-.313-.9541-.313-1.4922,0-.9014,.4302-1.6709,1.291-2.3096,.8604-.6387,2.1313-1.0928,3.8125-1.3613l.3628,.4229c-.7397,.0811-1.2979,.2793-1.6738,.5957-.377,.3154-.5649,.7627-.5649,1.3408,0,.3232,.0605,.6123,.1816,.8672,.1211,.2559,.376,.4746,.7661,.6562,.3901,.1807,.9814,.332,1.7754,.4531,.793,.1211,1.8555,.209,3.187,.2627,1.3442,.0537,2.5347,.1846,3.5703,.3936,1.0352,.208,1.9058,.5176,2.6118,.9277s1.2407,.9307,1.6035,1.5635c.3633,.6318,.5449,1.4043,.5449,2.3193,0,1.2236-.4106,2.3398-1.2305,3.3486-.8203,1.0078-2.0005,1.8115-3.54,2.4102-1.54,.5977-3.4058,.8975-5.5977,.8975Zm.0205-15.6934c-1.4795,0-2.7974-.2754-3.9536-.8262-1.1567-.5518-2.0576-1.3281-2.7031-2.3301-.645-1.002-.9678-2.1611-.9678-3.4795,0-1.3447,.3228-2.5146,.9678-3.5098,.6455-.9951,1.5464-1.7686,2.7031-2.3193,1.1562-.5518,2.4741-.8271,3.9536-.8271,1.1157,0,2.1382,.1582,3.0659,.4736,.9277,.3164,1.7275,.7666,2.4004,1.3516,.6724,.585,1.1968,1.2842,1.5732,2.0977s.5649,1.7178,.5649,2.7129c0,1.3311-.3228,2.498-.9683,3.5s-1.54,1.7783-2.6831,2.3301c-1.1431,.5508-2.4604,.8262-3.9531,.8262Zm.1611-1.7949c1.2104,0,2.1851-.3994,2.9248-1.2002,.7393-.7998,1.1094-1.96,1.1094-3.4795,0-1.5996-.373-2.8369-1.1191-3.7109-.7466-.874-1.8125-1.3115-3.1973-1.3115-1.2104,0-2.1919,.3965-2.9448,1.1904-.7534,.793-1.1299,1.9561-1.1299,3.4893,0,1.5869,.3799,2.8203,1.1396,3.7012s1.832,1.3213,3.2173,1.3213Zm2.7031-9.7227l-.8472-1.4521c.9004,.0811,1.7515,.1143,2.5513,.1016,.8003-.0137,1.5435-.0537,2.229-.1211,.686-.0674,1.311-.1348,1.876-.2021s1.0557-.1006,1.4727-.1006c.376,0,.6621,.1211,.8569,.3633,.1948,.2412,.2925,.6182,.2925,1.1289,0,.5381-.1309,.9922-.3931,1.3613-.2622,.3701-.5752,.5547-.938,.5547-.3228,0-.6523-.0732-.9883-.2217-.3364-.1475-.7534-.3193-1.251-.5137-.4976-.1953-1.1328-.377-1.9058-.5449-.7734-.168-1.7583-.2861-2.9551-.3535Z" fill="#fff"/></g></g></g></svg>